<svg xmlns="http://www.w3.org/2000/svg" viewBox="0 0 500 500"><g id="freepik--background-complete--inject-5"><path d="M312.46,470.41c0,1.4-23.6,2.53-52.7,2.53s-52.71-1.13-52.71-2.53,23.6-2.53,52.71-2.53S312.46,469,312.46,470.41Z" style="fill:#e0e0e0"></path><path d="M158.72,470.41c0,1.4-21.08,2.53-47.08,2.53s-47.08-1.13-47.08-2.53,21.08-2.53,47.08-2.53S158.72,469,158.72,470.41Z" style="fill:#e0e0e0"></path><rect x="437.83" y="133.21" width="33.87" height="8.96" style="fill:#ebebeb"></rect><path d="M457.38,151.61a1.08,1.08,0,0,1,0-.16c0-.12,0-.27,0-.46q0-.63,0-1.77c0-1.54,0-3.77-.05-6.57l.1.1-33.87.07.17-.17h0v4.54c0,1.5,0,3,0,4.41l-.16-.17,24.14.08,7.12,0,1.93,0h0l-1.89,0-7.09,0-24.25.08h-.17v-.17c0-1.44,0-2.91,0-4.41v-4.54h0c.35-.35.1-.1.18-.17l33.87.06h.11v.11c0,2.83-.05,5.07-.06,6.64l0,1.74v.44A.79.79,0,0,1,457.38,151.61Z" style="fill:#e0e0e0"></path><path d="M405.9,259.26a20.52,20.52,0,0,0-8.78-3A5.88,5.88,0,0,0,393,257a.85.85,0,0,0-.43.76.89.89,0,0,0,.41.51,12.55,12.55,0,0,0,12.95,1" style="fill:#e0e0e0"></path><path d="M405.67,259a43.37,43.37,0,0,1-5.67-5,14.33,14.33,0,0,1-3.55-6.58,2.67,2.67,0,0,1,.28-2.2c4.52,3.53,8.07,8.1,8.94,13.77" style="fill:#e0e0e0"></path><path d="M405.85,259.22a20.44,20.44,0,0,1,.11-7.44,10.07,10.07,0,0,1,4-6.14,8.78,8.78,0,0,1-.1,5.83,28.51,28.51,0,0,1-3.93,8.28" style="fill:#e0e0e0"></path><path d="M410.28,267.16a13.05,13.05,0,0,0-7,3.56,13.29,13.29,0,0,0-4,6.92c2.63-.17,4.87-2,6.5-4.11s2.74-4.38,4.53-6.33" style="fill:#e0e0e0"></path><path d="M411.25,268.43a17.33,17.33,0,0,1,2-16.42,20.93,20.93,0,0,1-2,16.42" style="fill:#e0e0e0"></path><path d="M417.1,275.4a12.57,12.57,0,0,0-12,6.91c-.14.3-.28.68-.08.94a.91.91,0,0,0,.8.24,10.47,10.47,0,0,0,6.19-3.2,61,61,0,0,1,5.15-4.9" style="fill:#e0e0e0"></path><path d="M416.91,275a22.39,22.39,0,0,1-.22-12.49c.44-1.61,1.18-3.3,2.66-4a.51.51,0,0,1,.41-.07.5.5,0,0,1,.26.29,7.59,7.59,0,0,1,.63,3.59,23.6,23.6,0,0,1-.56,3.63c-.47,2.21-.72,4.59-1.94,6.51a14,14,0,0,0-.77,1.43c-.23.48-.23.65-.44,1" style="fill:#e0e0e0"></path><path d="M432.41,277.33a16.1,16.1,0,0,1,2.82-13.24c.2-.26.47-.55.8-.52.51.05.64.73.62,1.23a24,24,0,0,1-4.24,12.53" style="fill:#e0e0e0"></path><path d="M433.81,278.29a19.27,19.27,0,0,0,15.8-3.22,12.86,12.86,0,0,0-8.56-1.05,12.12,12.12,0,0,0-7.24,4.27" style="fill:#e0e0e0"></path><path d="M435,275.38a18.28,18.28,0,0,1,14.35-8.3,8.84,8.84,0,0,1-4.69,5.19,25.89,25.89,0,0,1-6.89,2,4.89,4.89,0,0,0-2.77,1.1" style="fill:#e0e0e0"></path><path d="M432.7,261.27a41.35,41.35,0,0,0,1.84-8.4,14,14,0,0,0-1.67-8.31,18.29,18.29,0,0,0-.25,17" style="fill:#e0e0e0"></path><path d="M442.05,256.55c3.24-5.9,9.87-10.62,16.57-11.28-2.59,6.44-9.64,11.41-16.57,11.28" style="fill:#e0e0e0"></path><path d="M440,257.7c4.84.74,9,3.83,13.49,5.7a6,6,0,0,0,3,.59,2.39,2.39,0,0,0,1.5-4.22,6.46,6.46,0,0,0-2.22-1.35,24.65,24.65,0,0,0-15.4-.86" style="fill:#e0e0e0"></path><path d="M437.21,261.1a5.63,5.63,0,0,1,2.33,1.62A25.34,25.34,0,0,0,449.77,268c.39.1.91.14,1.1-.22s-.05-.68-.27-.95a14.05,14.05,0,0,0-6.17-4.2c-2.36-.87-4.41-1.93-7.22-1.71" style="fill:#e0e0e0"></path><path d="M434,240.59a19.39,19.39,0,0,0,14.85,5,1,1,0,0,0,.67-.24c.37-.41-.07-1-.51-1.38a17.1,17.1,0,0,0-15-3.43" style="fill:#e0e0e0"></path><path d="M437.79,239.22a20.7,20.7,0,0,1,18.52-3.06,14.7,14.7,0,0,1-8.82,3.88,27.86,27.86,0,0,1-9.7-.82" style="fill:#e0e0e0"></path><path d="M436.3,229.8c-.43-4.36-.15-7.8-.45-12.17,0-.35-.1-.77-.43-.9s-.83.39-1,.85a13.92,13.92,0,0,0,1.86,12.12" style="fill:#e0e0e0"></path><path d="M436,230.28a25.6,25.6,0,0,0,7.21-7c1.43-2,2.63-4.29,2.31-6.68a6.9,6.9,0,0,0-5.21,2.58,14.55,14.55,0,0,0-2.65,5.34c-.58,1.91-1,3.88-1.66,5.77" style="fill:#e0e0e0"></path><path d="M443.08,228.31a58.18,58.18,0,0,0,17.75-10.47c-2.12-.86-4.55-.34-6.67.51A21.1,21.1,0,0,0,443,228.26" style="fill:#e0e0e0"></path><path d="M438,232.66a36.18,36.18,0,0,0,9.86.05,41.77,41.77,0,0,0,9.2-3.06,1.06,1.06,0,0,0,.63-.48.71.71,0,0,0-.22-.78,1.92,1.92,0,0,0-.79-.37,17.1,17.1,0,0,0-10,.59,46.41,46.41,0,0,0-8.73,4" style="fill:#e0e0e0"></path><path d="M419.27,240.74a17.42,17.42,0,0,1-.16-14.43,11.07,11.07,0,0,1,1.28,7.17c-.25,2.47-1,5-1.05,7.48" style="fill:#e0e0e0"></path><path d="M410.33,236.23a20.15,20.15,0,0,0-14.95,6.38,14,14,0,0,0,8.19-1.52,42.57,42.57,0,0,0,7-4.7" style="fill:#e0e0e0"></path><path d="M404.33,234.23c-2.73-.23-5.36-.56-8,.24a9.59,9.59,0,0,0-6.08,5.16,14.4,14.4,0,0,0,7.48-1.41,43.46,43.46,0,0,0,6.59-4" style="fill:#e0e0e0"></path><path d="M413.22,234.32c-2.46-1.61-5-3.25-7.84-3.92s-6.18-.17-8.17,2c2.31,1.36,5.12,1.52,7.81,1.52s6,0,8.51.86" style="fill:#e0e0e0"></path><path d="M413.24,234.45c-4.21-4.13-5.8-11.54-4.11-17.18a26.25,26.25,0,0,1,4.11,17.18" style="fill:#e0e0e0"></path><path d="M424.79,222.76c.79-1.84,1.35-3.77,2.06-5.65a16.33,16.33,0,0,1,2.93-5.21,7.74,7.74,0,0,1,5.21-2.69,21,21,0,0,1-10.1,13.58" style="fill:#e0e0e0"></path><path d="M422.7,225.2c-1.32-1.81-2.83-4.26-4.61-5.61a7.71,7.71,0,0,0-6.26-1.64,14.64,14.64,0,0,0,10.87,7.25" style="fill:#e0e0e0"></path><path d="M423.11,222.91A31.19,31.19,0,0,1,421,216.2a10.48,10.48,0,0,1,1-6.82c2.31,4.35,3.05,9,1.14,13.58" style="fill:#e0e0e0"></path><path d="M424.81,209.38c1.3-4.32,5.26-7.51,9.53-9a3.7,3.7,0,0,1,1.67-.25,1.46,1.46,0,0,1,1.23,1c.16.74-.45,1.4-1,1.88a32.3,32.3,0,0,1-11.41,6.31" style="fill:#e0e0e0"></path><path d="M424.85,205.84a31,31,0,0,1,1.25-8.25,10.45,10.45,0,0,1,5.19-6.27c.44,2.81-.81,5.61-2.3,8s-3.3,4.71-4.2,7.41" style="fill:#e0e0e0"></path><path d="M424.79,207.76c-1.08-3.15-1.2-7.15-3.08-9.89-1.32-1.92-3.43-3.23-4.57-5.26a8,8,0,0,0,.27,6,17.22,17.22,0,0,0,3.49,5c1.39,1.49,2.59,2.61,3.89,4.19" style="fill:#e0e0e0"></path><path d="M424.81,300.49c-.09,0-.16-21-.17-46.91s.06-46.92.15-46.92.15,21,.16,46.92S424.89,300.49,424.81,300.49Z" style="fill:#e0e0e0"></path><path d="M443.16,237.57a4.7,4.7,0,0,1-.79.3l-2.17.73c-1.83.62-4.35,1.53-7.08,2.65s-5.26,2.1-6.71,3.36a4.81,4.81,0,0,0-1.35,1.78c-.21.5-.25.8-.27.79s0-.07,0-.22a4.28,4.28,0,0,1,1.47-2.51,11.69,11.69,0,0,1,2.92-1.81c1.16-.54,2.45-1.11,3.82-1.67,2.74-1.13,5.28-2,7.13-2.57.93-.29,1.69-.51,2.21-.65A5.16,5.16,0,0,1,443.16,237.57Z" style="fill:#e0e0e0"></path><path d="M449.18,222.79s-.07.09-.22.24l-.67.63L445.77,226l-8.38,7.45c-3.27,2.91-6.09,5.69-8.05,7.79-1,1-1.75,1.91-2.28,2.51l-.61.7a1.52,1.52,0,0,1-.22.23s0-.1.18-.27.31-.42.56-.73c.5-.63,1.25-1.52,2.21-2.59a108.92,108.92,0,0,1,8-7.86c3.28-2.91,6.27-5.52,8.44-7.4l2.58-2.21.71-.59C449.08,222.85,449.17,222.78,449.18,222.79Z" style="fill:#e0e0e0"></path><path d="M433.86,236.36c-.08,0,.6-1.61,1.28-3.61s1-3.67,1.1-3.66a12.48,12.48,0,0,1-.81,3.76,23.13,23.13,0,0,1-1,2.52A3.84,3.84,0,0,1,433.86,236.36Z" style="fill:#e0e0e0"></path><path d="M424.83,249.08a3.74,3.74,0,0,1-.51-.59L423,246.84c-1.08-1.41-2.58-3.34-4.26-5.46s-3.23-4-4.34-5.39l-1.32-1.63a5,5,0,0,1-.46-.62,3.25,3.25,0,0,1,.55.54c.33.37.81.91,1.39,1.58,1.16,1.34,2.73,3.22,4.42,5.33s3.15,4.08,4.19,5.52c.52.72.94,1.3,1.22,1.71A3.89,3.89,0,0,1,424.83,249.08Z" style="fill:#e0e0e0"></path><path d="M420.8,243.91a7.48,7.48,0,0,1-1.69-3.16,9.13,9.13,0,0,1-.38-3.18h.14a1,1,0,0,1-.13.37s0-.14,0-.39h.14a14.21,14.21,0,0,0,.54,3.1A23.41,23.41,0,0,0,420.8,243.91Z" style="fill:#e0e0e0"></path><path d="M415.6,237.37a5,5,0,0,0-1.17-.68,7.81,7.81,0,0,0-3.27-.26,20,20,0,0,0-3.29.53,7.65,7.65,0,0,1-1.36.32,5,5,0,0,1,1.3-.53,14.68,14.68,0,0,1,3.33-.62,7,7,0,0,1,3.37.36A2.07,2.07,0,0,1,415.6,237.37Z" style="fill:#e0e0e0"></path><path d="M414.37,235.79c0,.05-.68-.28-1.8-.66a18.3,18.3,0,0,0-9.09-.69c-1.16.21-1.87.42-1.88.37a1.58,1.58,0,0,1,.48-.2,9.92,9.92,0,0,1,1.36-.38,15.95,15.95,0,0,1,9.2.7,11.67,11.67,0,0,1,1.29.58C414.23,235.67,414.38,235.77,414.37,235.79Z" style="fill:#e0e0e0"></path><path d="M424.79,229.09a36.36,36.36,0,0,1-1.32-4.57,36.33,36.33,0,0,1-1-4.64,36.79,36.79,0,0,1,1.31,4.57A37.54,37.54,0,0,1,424.79,229.09Z" style="fill:#e0e0e0"></path><path d="M424.87,229.09a22,22,0,0,0-1.46-2.74,12.37,12.37,0,0,0-2.14-2.21,2,2,0,0,1,.82.43,6.7,6.7,0,0,1,1.57,1.61A6,6,0,0,1,424.87,229.09Z" style="fill:#e0e0e0"></path><path d="M424.81,289.3s-.1-.51-.33-1.4a20.47,20.47,0,0,0-1.41-3.64,50.38,50.38,0,0,0-7.45-10.49c-1.66-1.9-3.27-3.69-4.64-5.41a37.84,37.84,0,0,1-3.32-4.79A22,22,0,0,1,406,260c-.15-.43-.27-.78-.33-1a1.76,1.76,0,0,1-.09-.36s.18.48.53,1.33a26.69,26.69,0,0,0,1.75,3.49,40.21,40.21,0,0,0,3.36,4.73c1.37,1.69,3,3.48,4.65,5.38a47.77,47.77,0,0,1,7.42,10.6,17.94,17.94,0,0,1,1.32,3.7c.1.45.16.81.19,1.05A1.79,1.79,0,0,1,424.81,289.3Z" style="fill:#e0e0e0"></path><path d="M441.39,270.56a8.29,8.29,0,0,1-.86.49,18,18,0,0,0-2.26,1.49,24.77,24.77,0,0,0-3,2.7c-1,1.1-2.11,2.37-3.2,3.74-2.19,2.74-4.23,5.17-5.46,7.1a26.82,26.82,0,0,0-1.36,2.34,8.07,8.07,0,0,1-.48.88.86.86,0,0,1,.08-.25c.06-.16.15-.39.29-.68a21.16,21.16,0,0,1,1.29-2.4,78.31,78.31,0,0,1,5.4-7.18c1.09-1.37,2.18-2.65,3.24-3.74a23.8,23.8,0,0,1,3-2.68,16.4,16.4,0,0,1,2.33-1.43c.29-.14.52-.23.68-.3Z" style="fill:#e0e0e0"></path><path d="M441.72,276.64a12.9,12.9,0,0,1-1.84.26,24.9,24.9,0,0,0-4.36.86,13.15,13.15,0,0,0-3.9,2.05c-.9.7-1.32,1.27-1.36,1.24s.07-.17.27-.43a7.65,7.65,0,0,1,1-1,11.8,11.8,0,0,1,3.94-2.17,19.81,19.81,0,0,1,4.43-.78A10.19,10.19,0,0,1,441.72,276.64Z" style="fill:#e0e0e0"></path><path d="M430.79,280.38c-.09-.06.74-1.32,1.38-3s.74-3.22.85-3.21a2.85,2.85,0,0,1,0,1,10.43,10.43,0,0,1-.54,2.32,11.35,11.35,0,0,1-1.06,2.13C431.06,280.1,430.83,280.4,430.79,280.38Z" style="fill:#e0e0e0"></path><path d="M446.77,254.24l-.3.16-.86.39c-.38.16-.84.37-1.36.64s-1.12.54-1.75.92l-1,.57c-.35.2-.69.44-1.06.67-.74.45-1.48,1-2.27,1.56a44,44,0,0,0-4.74,4.17,42.33,42.33,0,0,0-4,4.88c-.54.81-1.06,1.57-1.49,2.32-.21.37-.44.73-.63,1.08l-.53,1c-.36.64-.61,1.26-.86,1.79s-.45,1-.6,1.37-.26.65-.36.88a1.62,1.62,0,0,1-.15.3,1.14,1.14,0,0,1,.09-.32c.08-.24.19-.54.31-.9s.31-.87.55-1.4.48-1.16.83-1.82c.16-.33.34-.67.52-1s.4-.72.62-1.1c.41-.76.93-1.53,1.47-2.35a40,40,0,0,1,4-4.93,41.34,41.34,0,0,1,4.79-4.18c.8-.56,1.55-1.11,2.3-1.55.38-.23.73-.46,1.08-.66l1-.56c.64-.36,1.25-.63,1.78-.88s1-.45,1.38-.6l.89-.34A1.51,1.51,0,0,1,446.77,254.24Z" style="fill:#e0e0e0"></path><path d="M433.64,263a2.07,2.07,0,0,1,.72-1.08,4.52,4.52,0,0,1,2.91-1.11,7.91,7.91,0,0,1,3.06.59,4.55,4.55,0,0,1,1.16.57,8.05,8.05,0,0,1-1.23-.36,9.27,9.27,0,0,0-3-.5,4.8,4.8,0,0,0-2.78,1A9,9,0,0,0,433.64,263Z" style="fill:#e0e0e0"></path><path d="M431.68,265.06a11.35,11.35,0,0,0,.82-2.69,10.65,10.65,0,0,0-.18-2.8,1.81,1.81,0,0,1,.34.78,5.46,5.46,0,0,1,.14,2.06,5.33,5.33,0,0,1-.61,2C431.93,264.84,431.71,265.08,431.68,265.06Z" style="fill:#e0e0e0"></path><path d="M410.3,292.31c.45,8,2.87,16.19,6.59,24.44h16.18a70.22,70.22,0,0,0,6.2-24.44Z" style="fill:#e0e0e0"></path><path d="M436.65,305.3c0,.08-5.33.15-11.9.15s-11.9-.07-11.9-.15,5.33-.16,11.9-.16S436.65,305.21,436.65,305.3Z" style="fill:#fafafa"></path><path d="M436.29,308.2c0,.09-5,.16-11.16.16S414,308.29,414,308.2s5-.15,11.15-.15S436.29,308.12,436.29,308.2Z" style="fill:#fafafa"></path><path d="M417.15,297.58a46.33,46.33,0,0,1,0,7.45,46.33,46.33,0,0,1,0-7.45Z" style="fill:#fafafa"></path><path d="M425.82,297.58a49.74,49.74,0,0,1,0,7.72,49.74,49.74,0,0,1,0-7.72Z" style="fill:#fafafa"></path><path d="M434,297.51a51.69,51.69,0,0,1,0,7.87,51.69,51.69,0,0,1,0-7.87Z" style="fill:#fafafa"></path><path d="M438.76,297.58c0,.08-6.25.15-14,.15s-13.95-.07-13.95-.15,6.25-.16,13.95-.16S438.76,297.49,438.76,297.58Z" style="fill:#fafafa"></path><path d="M51.05,259.26a20.61,20.61,0,0,0-8.78-3,5.91,5.91,0,0,0-4.16.77.84.84,0,0,0-.42.76.88.88,0,0,0,.4.51,12.57,12.57,0,0,0,13,1" style="fill:#e0e0e0"></path><path d="M50.82,259a42.11,42.11,0,0,1-5.67-5,14.33,14.33,0,0,1-3.55-6.58,2.63,2.63,0,0,1,.28-2.2c4.52,3.53,8.07,8.1,8.94,13.77" style="fill:#e0e0e0"></path><path d="M51,259.22a20.66,20.66,0,0,1,.1-7.44,10,10,0,0,1,4-6.14,8.78,8.78,0,0,1-.11,5.83A28.26,28.26,0,0,1,51,259.75" style="fill:#e0e0e0"></path><path d="M55.43,267.16a13.05,13.05,0,0,0-7,3.56,13.3,13.3,0,0,0-4,6.92c2.64-.17,4.88-2,6.5-4.11s2.75-4.38,4.53-6.33" style="fill:#e0e0e0"></path><path d="M56.39,268.43a17.36,17.36,0,0,1,2-16.42,20.89,20.89,0,0,1-2,16.42" style="fill:#e0e0e0"></path><path d="M62.25,275.4a12.55,12.55,0,0,0-12,6.91c-.15.3-.28.68-.08.94a.9.9,0,0,0,.8.24,10.5,10.5,0,0,0,6.19-3.2,61,61,0,0,1,5.15-4.9" style="fill:#e0e0e0"></path><path d="M62.06,275a22.3,22.3,0,0,1-.22-12.49c.44-1.61,1.17-3.3,2.66-4a.51.51,0,0,1,.41-.07.5.5,0,0,1,.26.29,7.59,7.59,0,0,1,.63,3.59,22.46,22.46,0,0,1-.57,3.63c-.46,2.21-.71,4.59-1.93,6.51a12.26,12.26,0,0,0-.77,1.43c-.23.48-.23.65-.45,1" style="fill:#e0e0e0"></path><path d="M77.56,277.33a16.1,16.1,0,0,1,2.82-13.24c.2-.26.47-.55.8-.52.51.05.64.73.62,1.23a24,24,0,0,1-4.24,12.53" style="fill:#e0e0e0"></path><path d="M79,278.29a19.29,19.29,0,0,0,15.81-3.22A12.86,12.86,0,0,0,86.2,274,12.15,12.15,0,0,0,79,278.29" style="fill:#e0e0e0"></path><path d="M80.13,275.38a18.26,18.26,0,0,1,14.34-8.3,8.81,8.81,0,0,1-4.69,5.19,25.93,25.93,0,0,1-6.88,2,4.86,4.86,0,0,0-2.77,1.1" style="fill:#e0e0e0"></path><path d="M77.85,261.27a42,42,0,0,0,1.83-8.4A13.88,13.88,0,0,0,78,244.56a18.32,18.32,0,0,0-.24,17" style="fill:#e0e0e0"></path><path d="M87.2,256.55c3.24-5.9,9.86-10.62,16.56-11.28-2.58,6.44-9.63,11.41-16.56,11.28" style="fill:#e0e0e0"></path><path d="M85.15,257.7c4.84.74,9,3.83,13.49,5.7a6,6,0,0,0,3,.59,2.39,2.39,0,0,0,1.5-4.22,6.56,6.56,0,0,0-2.22-1.35,24.65,24.65,0,0,0-15.4-.86" style="fill:#e0e0e0"></path><path d="M82.35,261.1a5.66,5.66,0,0,1,2.34,1.62A25.28,25.28,0,0,0,94.92,268c.39.1.9.14,1.1-.22s0-.68-.27-.95a14.05,14.05,0,0,0-6.17-4.2c-2.37-.87-4.41-1.93-7.23-1.71" style="fill:#e0e0e0"></path><path d="M79.19,240.59a19.38,19.38,0,0,0,14.84,5,1,1,0,0,0,.68-.24c.37-.41-.08-1-.51-1.38a17.11,17.11,0,0,0-15-3.43" style="fill:#e0e0e0"></path><path d="M82.94,239.22a20.7,20.7,0,0,1,18.52-3.06A14.71,14.71,0,0,1,92.63,240a27.8,27.8,0,0,1-9.69-.82" style="fill:#e0e0e0"></path><path d="M81.45,229.8c-.43-4.36-.15-7.8-.45-12.17,0-.35-.1-.77-.43-.9s-.84.39-1,.85a14,14,0,0,0,1.85,12.12" style="fill:#e0e0e0"></path><path d="M81.14,230.28a25.73,25.73,0,0,0,7.21-7c1.42-2,2.63-4.29,2.3-6.68a6.89,6.89,0,0,0-5.2,2.58,14.4,14.4,0,0,0-2.65,5.34c-.58,1.91-1,3.88-1.66,5.77" style="fill:#e0e0e0"></path><path d="M88.22,228.31A58.23,58.23,0,0,0,106,217.84c-2.12-.86-4.55-.34-6.67.51a21.06,21.06,0,0,0-11.18,9.91" style="fill:#e0e0e0"></path><path d="M83.13,232.66a36.18,36.18,0,0,0,9.86.05,42.12,42.12,0,0,0,9.2-3.06,1.06,1.06,0,0,0,.63-.48.72.72,0,0,0-.23-.78,1.82,1.82,0,0,0-.78-.37,17.1,17.1,0,0,0-10,.59,46.41,46.41,0,0,0-8.73,4" style="fill:#e0e0e0"></path><path d="M64.41,240.74a17.46,17.46,0,0,1-.16-14.43,11,11,0,0,1,1.28,7.17c-.25,2.47-1,5-1,7.48" style="fill:#e0e0e0"></path><path d="M55.48,236.23a20.17,20.17,0,0,0-15,6.38,14,14,0,0,0,8.19-1.52,41.75,41.75,0,0,0,7-4.7" style="fill:#e0e0e0"></path><path d="M49.48,234.23c-2.74-.23-5.36-.56-8,.24a9.59,9.59,0,0,0-6.09,5.16,14.42,14.42,0,0,0,7.49-1.41,43.46,43.46,0,0,0,6.59-4" style="fill:#e0e0e0"></path><path d="M58.37,234.32c-2.46-1.61-5-3.25-7.84-3.92s-6.18-.17-8.17,2c2.31,1.36,5.12,1.52,7.81,1.52s6,0,8.5.86" style="fill:#e0e0e0"></path><path d="M58.38,234.45c-4.2-4.13-5.79-11.54-4.1-17.18a26.18,26.18,0,0,1,4.1,17.18" style="fill:#e0e0e0"></path><path d="M69.93,222.76c.79-1.84,1.35-3.77,2.06-5.65a16.36,16.36,0,0,1,2.94-5.21,7.72,7.72,0,0,1,5.2-2.69A21,21,0,0,1,70,222.79" style="fill:#e0e0e0"></path><path d="M67.84,225.2c-1.31-1.81-2.82-4.26-4.6-5.61A7.71,7.71,0,0,0,57,218a14.61,14.61,0,0,0,10.86,7.25" style="fill:#e0e0e0"></path><path d="M68.26,222.91a31.19,31.19,0,0,1-2.07-6.71,10.42,10.42,0,0,1,1-6.82c2.3,4.35,3.05,9,1.14,13.58" style="fill:#e0e0e0"></path><path d="M70,209.38c1.31-4.32,5.27-7.51,9.54-9a3.7,3.7,0,0,1,1.67-.25,1.47,1.47,0,0,1,1.23,1c.16.74-.45,1.4-1,1.88A32.43,32.43,0,0,1,70,209.38" style="fill:#e0e0e0"></path><path d="M70,205.84a31,31,0,0,1,1.25-8.25,10.42,10.42,0,0,1,5.19-6.27c.43,2.81-.81,5.61-2.31,8s-3.3,4.71-4.2,7.41" style="fill:#e0e0e0"></path><path d="M69.93,207.76c-1.08-3.15-1.19-7.15-3.07-9.89-1.32-1.92-3.43-3.23-4.57-5.26a8,8,0,0,0,.27,6,17.22,17.22,0,0,0,3.49,5c1.39,1.49,2.59,2.61,3.88,4.19" style="fill:#e0e0e0"></path><path d="M70,300.49c-.08,0-.15-21-.16-46.91s.06-46.92.14-46.92.16,21,.16,46.92S70,300.49,70,300.49Z" style="fill:#e0e0e0"></path><path d="M88.31,237.57a5.23,5.23,0,0,1-.79.3l-2.17.73c-1.84.62-4.35,1.53-7.09,2.65s-5.25,2.1-6.71,3.36a4.88,4.88,0,0,0-1.34,1.78c-.21.5-.25.8-.28.79a.91.91,0,0,1,0-.22,3.47,3.47,0,0,1,.16-.61,4.64,4.64,0,0,1,1.31-1.9,11.61,11.61,0,0,1,2.91-1.81c1.17-.54,2.46-1.11,3.83-1.67,2.74-1.13,5.28-2,7.13-2.57.93-.29,1.68-.51,2.21-.65A4.91,4.91,0,0,1,88.31,237.57Z" style="fill:#e0e0e0"></path><path d="M94.33,222.79a1.73,1.73,0,0,1-.22.24l-.68.63c-.62.57-1.48,1.34-2.51,2.29l-8.38,7.45c-3.27,2.91-6.09,5.69-8.05,7.79-1,1-1.76,1.91-2.28,2.51l-.61.7c-.14.16-.22.24-.23.23a1.41,1.41,0,0,1,.18-.27c.13-.17.31-.42.57-.73.5-.63,1.25-1.52,2.21-2.59a105,105,0,0,1,8-7.86c3.28-2.91,6.26-5.52,8.43-7.4l2.58-2.21.72-.59C94.23,222.85,94.32,222.78,94.33,222.79Z" style="fill:#e0e0e0"></path><path d="M79,236.36c-.09,0,.6-1.61,1.28-3.61s1-3.67,1.1-3.66a12.86,12.86,0,0,1-.81,3.76,25.35,25.35,0,0,1-1,2.52A3.84,3.84,0,0,1,79,236.36Z" style="fill:#e0e0e0"></path><path d="M70,249.08a5.14,5.14,0,0,1-.5-.59l-1.29-1.65c-1.09-1.41-2.58-3.34-4.26-5.46s-3.23-4-4.35-5.39l-1.32-1.63a3.4,3.4,0,0,1-.45-.62,3.51,3.51,0,0,1,.54.54c.34.37.82.91,1.4,1.58,1.16,1.34,2.73,3.22,4.41,5.33s3.16,4.08,4.2,5.52c.52.72.94,1.3,1.21,1.71A3.2,3.2,0,0,1,70,249.08Z" style="fill:#e0e0e0"></path><path d="M66,243.91a7.36,7.36,0,0,1-1.69-3.16,9.13,9.13,0,0,1-.38-3.18H64a1.11,1.11,0,0,1-.12.37s0-.14,0-.39H64a14.87,14.87,0,0,0,.54,3.1A24.14,24.14,0,0,0,66,243.91Z" style="fill:#e0e0e0"></path><path d="M60.75,237.37a5.28,5.28,0,0,0-1.18-.68,7.76,7.76,0,0,0-3.26-.26A20.16,20.16,0,0,0,53,237a7.68,7.68,0,0,1-1.35.32,5,5,0,0,1,1.3-.53,14.58,14.58,0,0,1,3.32-.62,7,7,0,0,1,3.37.36A2.07,2.07,0,0,1,60.75,237.37Z" style="fill:#e0e0e0"></path><path d="M59.52,235.79c0,.05-.69-.28-1.8-.66a18.3,18.3,0,0,0-9.09-.69c-1.17.21-1.87.42-1.89.37a2,2,0,0,1,.48-.2,10.83,10.83,0,0,1,1.36-.38,16.24,16.24,0,0,1,4.66-.33,16,16,0,0,1,4.55,1,11.67,11.67,0,0,1,1.29.58A1.65,1.65,0,0,1,59.52,235.79Z" style="fill:#e0e0e0"></path><path d="M69.93,229.09a37.45,37.45,0,0,1-1.31-4.57,34.37,34.37,0,0,1-1-4.64,36.79,36.79,0,0,1,1.31,4.57A36.33,36.33,0,0,1,69.93,229.09Z" style="fill:#e0e0e0"></path><path d="M70,229.09a22,22,0,0,0-1.46-2.74,11.85,11.85,0,0,0-2.15-2.21,1.93,1.93,0,0,1,.83.43,6.89,6.89,0,0,1,1.57,1.61A6.16,6.16,0,0,1,70,229.09Z" style="fill:#e0e0e0"></path><path d="M70,289.3s-.09-.51-.33-1.4a19.55,19.55,0,0,0-1.4-3.64,50.38,50.38,0,0,0-7.45-10.49c-1.66-1.9-3.28-3.69-4.64-5.41a38,38,0,0,1-3.33-4.79A22.63,22.63,0,0,1,51.13,260c-.16-.43-.27-.78-.33-1a1.76,1.76,0,0,1-.09-.36s.18.48.53,1.33A25.47,25.47,0,0,0,53,263.46a41.22,41.22,0,0,0,3.35,4.73c1.38,1.69,3,3.48,4.66,5.38a47.69,47.69,0,0,1,7.41,10.6,18.08,18.08,0,0,1,1.33,3.7c.09.45.16.81.18,1.05A1.79,1.79,0,0,1,70,289.3Z" style="fill:#e0e0e0"></path><path d="M86.54,270.56a9.47,9.47,0,0,1-.87.49,17.35,17.35,0,0,0-2.25,1.49,24.77,24.77,0,0,0-3,2.7c-1,1.1-2.11,2.37-3.21,3.74-2.18,2.74-4.23,5.17-5.45,7.1-.62,1-1.07,1.77-1.37,2.34a6.36,6.36,0,0,1-.48.88.86.86,0,0,1,.08-.25c.07-.16.16-.39.3-.68a21.16,21.16,0,0,1,1.29-2.4,76.51,76.51,0,0,1,5.4-7.18c1.09-1.37,2.17-2.65,3.23-3.74a23.83,23.83,0,0,1,3-2.68,16.4,16.4,0,0,1,2.33-1.43c.29-.14.52-.23.68-.3Z" style="fill:#e0e0e0"></path><path d="M86.87,276.64a13.23,13.23,0,0,1-1.84.26,24.9,24.9,0,0,0-4.36.86,13.15,13.15,0,0,0-3.9,2.05c-.9.7-1.33,1.27-1.37,1.24a1.73,1.73,0,0,1,.28-.43,6.84,6.84,0,0,1,.95-1,12,12,0,0,1,4-2.17,19.81,19.81,0,0,1,4.43-.78A10.22,10.22,0,0,1,86.87,276.64Z" style="fill:#e0e0e0"></path><path d="M75.94,280.38c-.1-.06.73-1.32,1.37-3s.75-3.22.86-3.21a3.19,3.19,0,0,1,0,1,11,11,0,0,1-.54,2.32,10.74,10.74,0,0,1-1.07,2.13A3.06,3.06,0,0,1,75.94,280.38Z" style="fill:#e0e0e0"></path><path d="M91.91,254.24s-.09.06-.29.16l-.86.39c-.38.16-.84.37-1.36.64s-1.12.54-1.75.92l-1,.57c-.34.2-.69.44-1,.67-.74.45-1.48,1-2.27,1.56a43,43,0,0,0-4.74,4.17,42.33,42.33,0,0,0-4,4.88c-.54.81-1.07,1.57-1.49,2.32-.22.37-.44.73-.63,1.08l-.54,1c-.35.64-.61,1.26-.86,1.79s-.44,1-.59,1.37l-.36.88a1.62,1.62,0,0,1-.15.3,1.14,1.14,0,0,1,.09-.32c.08-.24.18-.54.31-.9a14.64,14.64,0,0,1,.55-1.4c.23-.54.48-1.16.82-1.82l.52-1c.19-.36.41-.72.62-1.1.42-.76.94-1.53,1.48-2.35a40,40,0,0,1,4-4.93,40.53,40.53,0,0,1,4.79-4.18c.8-.56,1.55-1.11,2.3-1.55.37-.23.72-.46,1.07-.66l1-.56c.64-.36,1.26-.63,1.79-.88s1-.45,1.38-.6l.89-.34A1.82,1.82,0,0,1,91.91,254.24Z" style="fill:#e0e0e0"></path><path d="M78.79,263a2,2,0,0,1,.72-1.08,4.52,4.52,0,0,1,2.91-1.11,7.91,7.91,0,0,1,3.06.59,4.14,4.14,0,0,1,1.15.57,8.56,8.56,0,0,1-1.22-.36,9.32,9.32,0,0,0-3-.5,4.8,4.8,0,0,0-2.78,1A7.79,7.79,0,0,0,78.79,263Z" style="fill:#e0e0e0"></path><path d="M76.82,265.06a10.59,10.59,0,0,0,.83-2.69,10.9,10.9,0,0,0-.19-2.8s.2.27.34.78a5.44,5.44,0,0,1,.15,2.06,5.73,5.73,0,0,1-.61,2C77.08,264.84,76.85,265.08,76.82,265.06Z" style="fill:#e0e0e0"></path><path d="M55.45,292.31c.45,8,2.87,16.19,6.59,24.44H78.22a70.22,70.22,0,0,0,6.2-24.44Z" style="fill:#e0e0e0"></path><path d="M81.8,305.3c0,.08-5.33.15-11.9.15S58,305.38,58,305.3s5.33-.16,11.9-.16S81.8,305.21,81.8,305.3Z" style="fill:#fafafa"></path><path d="M81.44,308.2c0,.09-5,.16-11.16.16s-11.15-.07-11.15-.16,5-.15,11.15-.15S81.44,308.12,81.44,308.2Z" style="fill:#fafafa"></path><path d="M62.3,297.58a46.33,46.33,0,0,1,0,7.45,46.33,46.33,0,0,1,0-7.45Z" style="fill:#fafafa"></path><path d="M71,297.58a49.74,49.74,0,0,1,0,7.72,49.74,49.74,0,0,1,0-7.72Z" style="fill:#fafafa"></path><path d="M79.11,297.51a51.69,51.69,0,0,1,0,7.87,51.69,51.69,0,0,1,0-7.87Z" style="fill:#fafafa"></path><path d="M83.91,297.58c0,.08-6.25.15-14,.15s-14-.07-14-.15,6.25-.16,14-.16S83.91,297.49,83.91,297.58Z" style="fill:#fafafa"></path><rect x="81.98" y="59.32" width="33.87" height="8.96" style="fill:#ebebeb"></rect><path d="M101.53,77.72s0-.06,0-.16,0-.27,0-.46q0-.63,0-1.77c0-1.54,0-3.77-.06-6.57l.11.1-33.87.07c.07-.08-.18.17.17-.17h0v4.54c0,1.5,0,3,0,4.41l-.17-.17,24.14.08,7.13.05,1.93,0h0l-1.89,0-7.09,0-24.26.08h-.17V68.77h0c.35-.35.1-.1.18-.17l33.87.06h.1v.11c0,2.83,0,5.07-.06,6.64l0,1.74v.44C101.53,77.68,101.53,77.72,101.53,77.72Z" style="fill:#e0e0e0"></path><path d="M251.14,42.75s0-.06,0-.16,0-.27,0-.46l0-1.76c0-1.55,0-3.78-.06-6.58l.1.11L217.27,34l.17-.17h0v8.93l-.17-.17,24.14.08,7.12.05,1.93,0h.68s0,0-.15,0h-.49l-1.89,0-7.08,0-24.26.08h-.17v-9.1h0l.17-.17,33.87.07h.11v.1c0,2.83-.05,5.08-.06,6.64q0,1.11,0,1.74c0,.18,0,.32,0,.44S251.15,42.76,251.14,42.75Z" style="fill:#e0e0e0"></path><path d="M255.74,33.79s0-.06,0-.17v-.47q0-.67,0-1.8c0-1.57,0-3.79-.07-6.52l.13.12L235.38,25c-.15.16.21-.21.18-.17h0v2.3c0,.77,0,1.54,0,2.29v4.34l-.17-.16,14.56.07,4.24,0,1.15,0,.41,0-.37,0-1.11,0-4.21.05L235.38,34h-.16v-.17c0-1.39,0-2.85,0-4.34V24.86h0l.17-.17,20.36.05h.12v.12c0,2.76-.05,5-.07,6.59q0,1.13,0,1.77C255.75,33.59,255.74,33.8,255.74,33.79Z" style="fill:#e0e0e0"></path><path d="M57.1,188.58s0-.06,0-.16,0-.27,0-.46l0-1.76c0-1.55,0-3.78-.06-6.58l.1.11-33.87.06c.08-.07-.17.18.17-.17h0v8.93l-.17-.17,24.14.08,7.12,0,1.93,0h.68s-.05,0-.15,0h-.49l-1.89,0-7.08,0-24.26.08h-.17v-9.1h0l.17-.17,33.87.07h.11v.1c0,2.83-.05,5.08-.06,6.64,0,.74,0,1.32,0,1.74,0,.18,0,.32,0,.44S57.11,188.59,57.1,188.58Z" style="fill:#e0e0e0"></path><path d="M61.7,179.62s0-.06,0-.17V179q0-.67,0-1.8c0-1.57,0-3.79-.07-6.52l.13.12-20.35.05.17-.17h0V173c0,.77,0,1.54,0,2.29v4.34l-.17-.16,14.56.07,4.24.05,1.15,0,.41,0-.37,0-1.11,0-4.21.05-14.67.07h-.16v-.17c0-1.39,0-2.85,0-4.34v-4.59h0s.33-.33.18-.17l20.35,0h.12v.12c0,2.76,0,5-.07,6.59q0,1.13,0,1.77C61.71,179.42,61.71,179.63,61.7,179.62Z" style="fill:#e0e0e0"></path><path d="M453.05,63.54a1.08,1.08,0,0,1,0-.16c0-.12,0-.27,0-.46,0-.42,0-1,0-1.76,0-1.55,0-3.78-.05-6.58l.1.11-33.87.06.17-.17h0v8.93l-.17-.17,24.14.08,7.12,0,1.93,0h0l-1.89,0-7.09,0-24.25.08H419v-.17c0-1.44,0-2.91,0-4.41V54.61h0l.18-.17,33.87.07h.11v.1c0,2.83-.05,5.08-.06,6.64l0,1.74v.44A.55.55,0,0,1,453.05,63.54Z" style="fill:#e0e0e0"></path><path d="M457.64,54.58a1.15,1.15,0,0,1,0-.17c0-.13,0-.28,0-.47q0-.67,0-1.8c0-1.57,0-3.79-.07-6.52l.12.12-20.35,0,.17-.17h0v4.59c0,1.49,0,2.95,0,4.34l-.16-.16,14.56.07,4.24,0,1.14,0,.41,0a2.37,2.37,0,0,1-.37,0l-1.11,0-4.2.05-14.67.07h-.16v-.17c0-1.39,0-2.85,0-4.34V45.65h0l.17-.17,20.35,0h.13v.12c0,2.76,0,5-.07,6.59q0,1.13,0,1.77A4.35,4.35,0,0,1,457.64,54.58Z" style="fill:#e0e0e0"></path></g><g id="freepik--Floor--inject-5"><path d="M471.57,316.9c0,.15-101,.26-225.56.26s-225.58-.11-225.58-.26,101-.26,225.58-.26S471.57,316.76,471.57,316.9Z" style="fill:#263238"></path></g><g id="freepik--Plant--inject-5"><path d="M404.09,335.3c-7.45,3.86-13.17,10.51-17.28,17.83s-6.76,15.36-9.38,23.33l-2.3,41.14c8.67-14.76,15.64-32.11,17.52-49.13l-5.77-.51c3.87-.59,7.11-3.4,9.18-6.72s3.13-7.16,4.17-10.94l-7,1.05A26.09,26.09,0,0,0,404.09,335.3Z" style="fill:#455a64"></path><g style="opacity:0.30000000000000004"><path d="M404.09,335.3c-7.45,3.86-13.17,10.51-17.28,17.83s-6.76,15.36-9.38,23.33l-2.3,41.14c8.67-14.76,15.64-32.11,17.52-49.13l-5.77-.51c3.87-.59,7.11-3.4,9.18-6.72s3.13-7.16,4.17-10.94l-7,1.05A26.09,26.09,0,0,0,404.09,335.3Z"></path></g><path d="M373.85,427.23S355,404.7,355.23,383.18h7.61s-8.26-5.43-7.61-8.47.87-14.56.87-14.56l7,1.74s-5.22-2.61-5.87-6.74,1.52-23.25,1.52-23.25,8.48,8.91,11.08,18,9.46,19.78,7.45,47.6S373.85,427.23,373.85,427.23Z" style="fill:#455a64"></path><path d="M380.13,433.87s21.19-12.33,26.76-29.37l-6-2s8-2.08,8.27-4.66,3.2-11.72,3.2-11.72l-6-.49s4.81-.66,6.43-3.75,5-18.76,5-18.76-9.07,4.77-13.57,11.28S391.53,387.46,385.69,410,380.13,433.87,380.13,433.87Z" style="fill:#455a64"></path><path d="M363.85,351.55s0,.07.08.23.1.41.17.69c.15.65.36,1.54.62,2.67.52,2.32,1.22,5.69,2,9.87,1.61,8.36,3.51,20,5,32.88S374,422.54,374.38,431c.17,4.25.26,7.7.27,10.08,0,1.15,0,2.07,0,2.74,0,.28,0,.52,0,.71a1.1,1.1,0,0,1,0,.24.92.92,0,0,1,0-.24c0-.19,0-.42,0-.71,0-.67-.06-1.58-.11-2.74-.08-2.38-.22-5.81-.44-10.06-.43-8.49-1.29-20.22-2.78-33.11s-3.33-24.5-4.85-32.87c-.75-4.18-1.4-7.57-1.86-9.9-.22-1.13-.39-2-.52-2.69-.05-.28-.09-.51-.12-.7A1.47,1.47,0,0,1,363.85,351.55Z" style="fill:#263238"></path><path d="M371.23,441S354,421.48,348.65,409.66l4-1.72a10.49,10.49,0,0,1-8.2-2.69,31.06,31.06,0,0,1-5.57-6.9l5.32-.9a19.77,19.77,0,0,1-11.62-9c6.28,1,12,4.48,16.64,8.79a82.64,82.64,0,0,1,10.08,11.68,40.26,40.26,0,0,1,3.92,6.44C366.15,421.35,371.24,433.85,371.23,441Z" style="fill:#455a64"></path><path d="M409,374a6.37,6.37,0,0,1-.38.75c-.29.53-.67,1.23-1.16,2.11-1,1.82-2.49,4.48-4.27,7.76-3.56,6.58-8.29,15.77-13.05,26.14s-8.61,20-11.26,27c-1.33,3.5-2.38,6.33-3.09,8.3l-.84,2.26a8.32,8.32,0,0,1-.32.78,4.52,4.52,0,0,1,.22-.81c.19-.57.43-1.33.75-2.29.65-2,1.65-4.85,2.93-8.37,2.57-7,6.39-16.65,11.14-27s9.55-19.57,13.2-26.1c1.82-3.27,3.33-5.9,4.41-7.69.53-.86.94-1.55,1.25-2.06A4.17,4.17,0,0,1,409,374Z" style="fill:#263238"></path><path d="M372.7,449.41a6.62,6.62,0,0,1-.29-1.39c-.14-.9-.37-2.2-.7-3.8a77.85,77.85,0,0,0-8.94-23.69c-.81-1.41-1.5-2.54-2-3.31a7.14,7.14,0,0,1-.7-1.23,7.26,7.26,0,0,1,.87,1.12c.55.74,1.28,1.84,2.14,3.23a68.65,68.65,0,0,1,9,23.81c.27,1.62.45,2.93.53,3.84A8.34,8.34,0,0,1,372.7,449.41Z" style="fill:#263238"></path><rect x="357.9" y="438.35" width="33.9" height="6.92" style="fill:#800080"></rect><polygon points="361.13 445.27 364.8 468.53 385.29 468.53 388.71 445.27 361.13 445.27" style="fill:#800080"></polygon><path d="M389.73,445.27c0,.14-6.42.26-14.33.26s-14.32-.12-14.32-.26,6.41-.26,14.32-.26S389.73,445.12,389.73,445.27Z" style="fill:#263238"></path></g><g id="freepik--Shop--inject-5"><rect x="151.39" y="117.54" width="234.96" height="192.96" style="fill:#e0e0e0"></rect><rect x="146.72" y="139.89" width="246.57" height="6.54" rx="2.7" style="fill:#e0e0e0"></rect><rect x="165.63" y="160.43" width="114.91" height="82.4" style="fill:#fafafa"></rect><path d="M280.54,242.83s0-.52,0-1.51,0-2.46,0-4.37c0-3.84,0-9.45-.06-16.63,0-14.34-.06-34.91-.11-59.89l.21.21-114.9.05h0l.26-.26c0,29.52,0,57.52,0,82.4l-.24-.24,82.86.12,23.6.06,6.28,0,1.61,0h0l-1.59,0-6.23,0-23.54.06-83,.12h-.24v-.24c0-24.88,0-52.88,0-82.4v-.26h.27l114.9.05h.21v.21c0,25-.08,45.65-.11,60,0,7.15,0,12.75-.05,16.57,0,1.89,0,3.34,0,4.33S280.54,242.83,280.54,242.83Z" style="fill:#263238"></path><rect x="298.25" y="153.88" width="78.36" height="149.45" style="fill:#455a64"></rect><rect x="308.34" y="163.92" width="58.9" height="61.76" style="fill:#fafafa"></rect><rect x="308.34" y="243.91" width="58.9" height="49.5" style="fill:#fafafa"></rect><circle cx="306.38" cy="234.79" r="3.47" style="fill:#e0e0e0"></circle><g style="opacity:0.2"><path d="M172,117.66c0,10.73-9.76,21.56-20.61,21.56l-.74-21.56H172"></path><path d="M230.93,140.11c10.84,0,19.64-10.05,19.64-22.45H211.28C211.28,130.06,220.08,140.11,230.93,140.11Z"></path><path d="M309.49,140.11c10.84,0,19.64-10.05,19.64-22.45H289.85C289.85,130.06,298.64,140.11,309.49,140.11Z"></path><path d="M191.64,140.11c10.85,0,19.64-10.05,19.64-22.45H172C172,130.06,180.8,140.11,191.64,140.11Z"></path><path d="M270.21,140.11c10.84,0,19.64-10.05,19.64-22.45H250.57C250.57,130.06,259.36,140.11,270.21,140.11Z"></path><path d="M348.84,140.11c10.89,0,19.72-10.05,19.72-22.45H329.13C329.13,130.06,338,140.11,348.84,140.11Z"></path><path d="M368.56,117.66c0,12.4,6.94,22,17.64,22l.42-22Z"></path></g><polygon points="162.5 71.98 131.95 117.54 406.51 117.54 376.82 71.98 162.5 71.98" style="fill:#800080"></polygon><path d="M132,117.54a19.64,19.64,0,0,0,39.28,0Z" style="fill:#800080"></path><path d="M171.23,117.54a19.64,19.64,0,0,0,39.28,0Z" style="fill:#800080"></path><path d="M210.51,117.54a19.64,19.64,0,0,0,39.28,0Z" style="fill:#800080"></path><path d="M249.79,117.54a19.64,19.64,0,0,0,39.28,0Z" style="fill:#800080"></path><path d="M289.07,117.54a19.64,19.64,0,0,0,39.28,0Z" style="fill:#800080"></path><path d="M328.35,117.54a19.72,19.72,0,0,0,39.43,0Z" style="fill:#800080"></path><g style="opacity:0.30000000000000004"><path d="M171.23,117.54a19.64,19.64,0,0,0,39.28,0Z" style="fill:#fff"></path></g><g style="opacity:0.30000000000000004"><path d="M249.79,117.54a19.64,19.64,0,0,0,39.28,0Z" style="fill:#fff"></path></g><g style="opacity:0.30000000000000004"><path d="M328.35,117.54a19.72,19.72,0,0,0,39.43,0Z" style="fill:#fff"></path></g><path d="M367.78,117.54a19.37,19.37,0,1,0,38.74,0Z" style="fill:#800080"></path><g style="opacity:0.30000000000000004"><polygon points="171.23 117.66 191.96 71.98 219.99 71.98 210.51 117.66 171.23 117.66" style="fill:#fff"></polygon></g><g style="opacity:0.30000000000000004"><polygon points="249.39 71.98 249.79 117.66 289.07 117.66 284.7 71.98 249.39 71.98" style="fill:#fff"></polygon></g><g style="opacity:0.30000000000000004"><polygon points="328.35 117.66 317.92 71.98 347.79 71.98 367.63 117.66 328.35 117.66" style="fill:#fff"></polygon></g><rect x="151.39" y="58.54" width="234.96" height="13.44" rx="5.92" style="fill:#800080"></rect><path d="M406.52,117.66c0,.14-61.47.26-137.28.26S132,117.8,132,117.66s61.45-.26,137.29-.26S406.52,117.51,406.52,117.66Z" style="fill:#263238"></path><path d="M386.62,302s0-.25,0-.73,0-1.22,0-2.17c0-1.92,0-4.75,0-8.43,0-7.39,0-18.18-.07-31.85,0-27.37-.05-66.25-.09-112.36l.23.23-118.25,0-116.92,0,.24-.23c0,46.48-.07,85.7-.1,113.31,0,13.8-.05,24.69-.06,32.15,0,3.72,0,6.58,0,8.51,0,1,0,1.69,0,2.19s0,.74,0,.74,0-.25,0-.74,0-1.23,0-2.19c0-1.93,0-4.79,0-8.51,0-7.46,0-18.35-.07-32.15,0-27.61-.05-66.83-.09-113.31v-.24h.23l116.92,0,118.25,0h.24v.24c0,46.11-.07,85-.1,112.36,0,13.67-.05,24.46-.06,31.85,0,3.68,0,6.51,0,8.43,0,.95,0,1.67,0,2.17S386.62,302,386.62,302Z" style="fill:#263238"></path><path d="M387.4,139.89c0,.15-52.82.26-118,.26s-118-.11-118-.26,52.82-.26,118-.26S387.4,139.75,387.4,139.89Z" style="fill:#263238"></path><path d="M380.88,72c0,.14-49.78.26-111.17.26S158.53,72.12,158.53,72s49.77-.26,111.18-.26S380.88,71.84,380.88,72Z" style="fill:#263238"></path><path d="M201.21,242.41c-.14,0-.26-18.26-.26-40.78s.12-40.78.26-40.78.26,18.26.26,40.78S201.36,242.41,201.21,242.41Z" style="fill:#e0e0e0"></path><path d="M242.46,242.41c-.14,0-.26-18.26-.26-40.78s.12-40.78.26-40.78.26,18.26.26,40.78S242.6,242.41,242.46,242.41Z" style="fill:#e0e0e0"></path><path d="M280.49,202.85c0,.14-25.79.26-57.61.26s-57.61-.12-57.61-.26,25.79-.26,57.61-.26S280.49,202.7,280.49,202.85Z" style="fill:#e0e0e0"></path><path d="M375.23,153.88a7.75,7.75,0,0,1-.52.73l-1.55,2L367.38,164l-.05.07h-.09l-30.15.08-28.75-.07h-.09l-.05-.05-7.32-7.41-2-2-.51-.54c-.11-.13-.16-.19-.15-.2l.19.16.55.5,2,2,7.44,7.28-.13-.05,28.75-.07,30.15.07-.15.07,5.91-7.29,1.63-2A5.6,5.6,0,0,1,375.23,153.88Z" style="fill:#263238"></path><path d="M376.74,303.06s-.07-.05-.19-.15l-.52-.48-1.95-1.89-7.12-7,.14.05-29.7.08-29.2-.07.13-.06-7.44,7.2-2,1.93-.54.5c-.13.11-.19.16-.2.15a1.05,1.05,0,0,1,.16-.19l.5-.54,2-2,7.32-7.31.06-.06h.08l29.2-.07,29.7.08h.08l.05,0,7,7.12,1.88,2,.48.52C376.7,303,376.75,303.05,376.74,303.06Z" style="fill:#263238"></path><path d="M367.24,166s0,.09,0,.28,0,.49,0,.85c0,.77,0,1.87,0,3.29,0,2.89,0,7.07.07,12.33,0,10.58.05,25.49.09,42.89v.25h-.24l-30.5,0-28.4,0h-.25v-.25c0-18,.07-33.39.09-44.36,0-5.45.06-9.79.07-12.8,0-1.47,0-2.61,0-3.41,0-.37,0-.66,0-.88a1.16,1.16,0,0,1,0-.3s0,.1,0,.3,0,.51,0,.88c0,.8,0,1.94,0,3.41,0,3,0,7.35.07,12.8,0,11,.05,26.4.09,44.36l-.24-.24,28.4,0,30.5,0-.25.24c0-17.4.07-32.31.09-42.89,0-5.26.06-9.44.07-12.33,0-1.42,0-2.52,0-3.29l0-.85A1,1,0,0,1,367.24,166Z" style="fill:#263238"></path><path d="M367.24,293.42a.75.75,0,0,1,0-.24l0-.7c0-.64,0-1.55,0-2.72,0-2.4,0-5.85-.07-10.21,0-8.77-.06-21.14-.1-35.64l.25.24-29.52,0-29.52,0,.24-.24c0,14.51-.07,26.87-.09,35.65,0,4.35-.06,7.8-.07,10.2,0,1.17,0,2.08,0,2.72,0,.29,0,.52,0,.7a1.1,1.1,0,0,1,0,.24.64.64,0,0,1,0-.24c0-.18,0-.41,0-.7,0-.64,0-1.55,0-2.72,0-2.4,0-5.85-.07-10.2,0-8.78-.05-21.14-.09-35.65v-.24h.24l29.52,0,29.52,0h.24v.24c0,14.5-.07,26.87-.1,35.64,0,4.36-.05,7.81-.07,10.21,0,1.17,0,2.08,0,2.72l0,.7C367.25,293.34,367.24,293.42,367.24,293.42Z" style="fill:#263238"></path><path d="M346.15,185.94c-.23-.24-.47-.47-.79-.78L343.23,183c-1.88-1.91-4.31-4.4-7-7.14l0,0h.39c-2.47,3-4.72,5.73-6.38,7.68-.82,1-1.5,1.76-2,2.29a4.27,4.27,0,0,1-.78.8,5.31,5.31,0,0,1,.63-.92c.5-.66,1.12-1.46,1.85-2.4,1.58-2,3.79-4.76,6.26-7.78l.18-.23.21.21v0c2.72,2.8,5.15,5.36,6.89,7.25S346.26,185.86,346.15,185.94Z" style="fill:#263238"></path><rect x="315.88" y="186.25" width="43.67" height="17.1" transform="translate(-6.79 12.28) rotate(-2.06)" style="fill:#455a64"></rect><path d="M327.36,197.82a2.91,2.91,0,0,1-1.18-1,3.09,3.09,0,0,1-.11-3.09,2.82,2.82,0,0,1,1.1-1.12,3.55,3.55,0,0,1,1.62-.45,3.31,3.31,0,0,1,1.64.34,3,3,0,0,1,.19,5.24,3.32,3.32,0,0,1-1.62.45A3.42,3.42,0,0,1,327.36,197.82Zm2.53-1.09a1.65,1.65,0,0,0,.62-.69,2,2,0,0,0,.21-1,2,2,0,0,0-.28-1,1.63,1.63,0,0,0-.67-.63,1.88,1.88,0,0,0-.94-.21,1.94,1.94,0,0,0-.93.27,1.65,1.65,0,0,0-.62.69,2,2,0,0,0-.21,1,2,2,0,0,0,.28,1,1.65,1.65,0,0,0,.67.64,2,2,0,0,0,.94.2A1.84,1.84,0,0,0,329.89,196.73Z" style="fill:#fff"></path><path d="M336.87,192.19a1.94,1.94,0,0,1,1.25,1.81,2.08,2.08,0,0,1-.27,1.13,2,2,0,0,1-.85.77,3.39,3.39,0,0,1-1.34.3l-1.17,0,.06,1.61-1.35.05-.21-5.83,2.52-.09A3.22,3.22,0,0,1,336.87,192.19Zm-.41,2.62a.9.9,0,0,0,.29-.76.92.92,0,0,0-.34-.74,1.43,1.43,0,0,0-.93-.23l-1.1,0,.07,2,1.1,0A1.39,1.39,0,0,0,336.46,194.81Z" style="fill:#fff"></path><path d="M343.68,196.44l0,1.08-4.51.16-.21-5.82,4.4-.16,0,1.08-3.06.11,0,1.26,2.71-.09,0,1.05-2.7.09.05,1.35Z" style="fill:#fff"></path><path d="M349.92,191.46l.21,5.83-1.1,0-3-3.43.13,3.53-1.33,0-.21-5.82,1.12,0,3,3.43-.13-3.54Z" style="fill:#fff"></path><rect x="142.98" y="302.63" width="249.02" height="13.33" style="fill:#e0e0e0"></rect><path d="M392,302.68c0,.14-55.85.26-124.73.26s-124.74-.12-124.74-.26,55.84-.26,124.74-.26S392,302.53,392,302.68Z" style="fill:#263238"></path><rect x="250.14" y="252.81" width="32.07" height="10" style="fill:#ebebeb"></rect><rect x="166.82" y="251.74" width="32.07" height="10" style="fill:#ebebeb"></rect><rect x="233.04" y="263.1" width="32.07" height="10" style="fill:#f5f5f5"></rect><path d="M223.41,288.63a5.09,5.09,0,0,1,0-.7c0-.5,0-1.16,0-2,0-1.75-.05-4.22-.09-7.31l.17.17-32.07.09c.11-.12-.27.26.25-.26h0v10l-.26-.25,22.87.12,6.73.07,1.82,0,.66,0a2.27,2.27,0,0,1-.59,0l-1.77,0-6.68.07-23,.12h-.25v-.26c0-1.58,0-3.21,0-4.88v-5.09h0c.52-.52.15-.14.27-.26l32.07.09h.17v.17c0,3.13-.07,5.63-.09,7.41,0,.81,0,1.45,0,1.94A4.52,4.52,0,0,1,223.41,288.63Z" style="fill:#263238"></path></g><g id="freepik--Blackboard--inject-5"><polygon points="202.43 470.7 212.78 471.29 220.04 294.42 213.23 294.67 202.43 470.7" style="fill:#800080"></polygon><polygon points="317.07 470.86 306.72 471.29 299.2 293.06 308.14 292.69 317.07 470.86" style="fill:#800080"></polygon><polygon points="309.43 427.7 209.03 427.7 212.32 294.57 308.14 292.69 309.43 427.7" style="fill:#800080"></polygon><polygon points="304.61 421.22 214.89 421.22 220.09 301.52 300.13 301.52 304.61 421.22" style="fill:#263238"></polygon><path d="M242.77,336.89a.94.94,0,0,1-.07.22l-.09.21a1.8,1.8,0,0,0-.08.21,1.65,1.65,0,0,1-.09.21c0,.1,0,.2-.05.31l-.09.33c0,.07,0,.12-.05.13a.14.14,0,0,0,0,.06.93.93,0,0,0,0,.23.63.63,0,0,1-.05.22.3.3,0,0,0,0,.11.17.17,0,0,1,0,.07c0,.07,0,.13,0,.18a.25.25,0,0,0,0,.1.37.37,0,0,1,0,.11.16.16,0,0,0,0,.09.14.14,0,0,1,0,.06.19.19,0,0,0,0,.1v.06a.24.24,0,0,0,0,.11s0,0,0,.06a.4.4,0,0,0-.08.17s0,.07,0,.1,0,.21-.06.34a1.9,1.9,0,0,1-.08.36l-.05.12,0,.08a.59.59,0,0,0-.05.17.83.83,0,0,1-.05.2.59.59,0,0,1,0,.14,1.54,1.54,0,0,1-.05.17.32.32,0,0,1,0,.13s0,0,0,0a1.55,1.55,0,0,0,0,.21,1.25,1.25,0,0,1,0,.19c0,.07-.06.11-.05.15a.15.15,0,0,1,0,.07c0,.1-.06.19-.08.25s0,.13,0,.18a.55.55,0,0,0,0,.18v.11a1.24,1.24,0,0,1,0,.16.88.88,0,0,0,0,.15,1,1,0,0,0,0,.16.94.94,0,0,1,0,.16c0,.08,0,.14-.06.2l-.08.2a.65.65,0,0,0,0,.18v.1a2.46,2.46,0,0,0-.12.44,3.06,3.06,0,0,1-.1.38.27.27,0,0,1,0,.12.25.25,0,0,0,0,.12l0,.08a.31.31,0,0,0,0,.1.36.36,0,0,0,0,.1.49.49,0,0,1,0,.11,1.4,1.4,0,0,1-.1.16.48.48,0,0,0-.07.18.13.13,0,0,1-.06.09.16.16,0,0,0,0,.08.39.39,0,0,0,0,.15.25.25,0,0,1,0,.13.58.58,0,0,0-.1.19c0,.05-.06.08-.13.1a.17.17,0,0,1-.18,0,.55.55,0,0,1-.14-.13.83.83,0,0,1-.13-.18l-.09-.15a.72.72,0,0,1-.2-.23,1.06,1.06,0,0,0-.17-.26l-.09-.13a.75.75,0,0,1-.07-.12.62.62,0,0,1-.11-.18.77.77,0,0,1-.13-.2,1.71,1.71,0,0,1-.12-.23,1.52,1.52,0,0,1-.26-.35l-.22-.4a.39.39,0,0,0-.06-.13s0,0-.05-.05l-.07-.15a.29.29,0,0,0-.08-.14.67.67,0,0,0-.1-.18.35.35,0,0,0-.07-.09.11.11,0,0,0,0-.12.32.32,0,0,1-.08-.09.68.68,0,0,0-.08-.22.52.52,0,0,1-.07-.12.29.29,0,0,1,0-.09.12.12,0,0,0,0-.09c0-.05,0-.09,0-.14s0-.08,0-.13a.83.83,0,0,0-.07-.13.34.34,0,0,1,0-.1c0-.08,0-.12,0-.13l0,0a1.42,1.42,0,0,0-.14-.48.18.18,0,0,0,0-.11l-.05-.07a.22.22,0,0,1,0-.09.11.11,0,0,0,0-.08q-.08-.11-.06-.15a.13.13,0,0,0,0-.06.43.43,0,0,1,0-.07.31.31,0,0,1-.05-.1c0-.09-.05-.18-.07-.27a2.5,2.5,0,0,0-.09-.25,1.36,1.36,0,0,0,0-.18.27.27,0,0,0,0-.13.15.15,0,0,0-.12.13.58.58,0,0,1,0,.18,1.31,1.31,0,0,0,0,.15c0,.05,0,.11,0,.15a1.6,1.6,0,0,1-.1.23,1.51,1.51,0,0,0-.11.22.85.85,0,0,0-.09.25.54.54,0,0,1,0,.15.85.85,0,0,1-.09.15.8.8,0,0,0-.09.14l-.11.22a1.06,1.06,0,0,1-.11.21l-.15.19a.56.56,0,0,0-.11.2c0,.06-.05.12-.07.17a1,1,0,0,1,0,.18s0,.08,0,.13l0,.15-.13.3a.94.94,0,0,1-.18.24c0,.07,0,.12,0,.14l0,0a.13.13,0,0,1,0,.1l-.05.05a.36.36,0,0,0,0,.09l-.05.11a.12.12,0,0,0-.06.09.06.06,0,0,1,0,.07,1.29,1.29,0,0,0-.13.19.46.46,0,0,1-.08.13l-.09.12a.1.1,0,0,1-.05.06.19.19,0,0,0,0,.09.25.25,0,0,1,0,.09.23.23,0,0,1-.07.11.44.44,0,0,0-.06.1l-.1.24a.86.86,0,0,0,0,.24s0,0-.05.06a.16.16,0,0,1-.06.08s0,.07,0,.08,0,0,0,.08a.26.26,0,0,0-.09.21.58.58,0,0,1-.06.26l-.1.14a.12.12,0,0,1-.05.07.31.31,0,0,1-.13.06.16.16,0,0,1-.14-.06.48.48,0,0,1-.1-.15.31.31,0,0,0,0-.1l0-.07a.25.25,0,0,1,0-.07.14.14,0,0,1,0-.11.37.37,0,0,0,0-.12.88.88,0,0,1-.05-.15l0-.15-.06-.2a.28.28,0,0,1,0-.09.25.25,0,0,0,0-.07l0-.09c0-.1,0-.15,0-.17a.5.5,0,0,0,0-.15l0-.07a.15.15,0,0,1,0-.07.14.14,0,0,0,0-.09c-.07-.18-.08-.29-.05-.33a.3.3,0,0,0,0-.08.3.3,0,0,1,0-.1.17.17,0,0,1,0-.12.08.08,0,0,0-.06-.1.25.25,0,0,0,0-.22.77.77,0,0,1-.1-.23.45.45,0,0,1,0-.16.91.91,0,0,0,0-.17.75.75,0,0,1,0-.15.72.72,0,0,1,0-.17.91.91,0,0,0-.07-.14.14.14,0,0,1,0-.14l-.06-.09a.07.07,0,0,1,0-.12.42.42,0,0,1-.09-.14s0-.09,0-.13a.14.14,0,0,1,0-.09.13.13,0,0,0,0-.1,1.7,1.7,0,0,1-.08-.3l0-.25s0-.07,0-.1a.44.44,0,0,0,0-.1.57.57,0,0,1,0-.13.24.24,0,0,0,0-.12.31.31,0,0,1,0-.11.64.64,0,0,0,0-.07l0-.08a.3.3,0,0,1,0-.1.2.2,0,0,1,0-.13.17.17,0,0,0,0-.12,2.57,2.57,0,0,0-.06-.28l-.06-.22a.68.68,0,0,0,0-.13.08.08,0,0,1,0-.05c0-.06,0-.1,0-.12a.08.08,0,0,1,0,0,.38.38,0,0,0,0-.14V340l-.06-.17s0-.1-.07-.18,0-.09,0-.13a.35.35,0,0,0,0-.13l-.07-.07a.2.2,0,0,1,0-.08.2.2,0,0,1,0-.11.37.37,0,0,0,0-.12l0-.11a.16.16,0,0,0-.06-.08c0-.1,0-.2-.06-.28a.43.43,0,0,0-.11-.19.53.53,0,0,0-.06-.21l-.1-.18a.7.7,0,0,0-.05-.13l0-.05a.56.56,0,0,1-.05-.08l0-.09a.16.16,0,0,1,0-.08.38.38,0,0,0,0-.1l0-.07,0-.07a.25.25,0,0,1,0-.08.26.26,0,0,0,0-.11l-.06-.13a.24.24,0,0,1,0-.17.86.86,0,0,1-.11-.25.92.92,0,0,1,0-.2s0-.06,0-.07l.24-.05a.91.91,0,0,1,.23,0,.41.41,0,0,0,.17,0h.07a.19.19,0,0,0,.1,0l.11,0a4.56,4.56,0,0,0,.65,0l.54,0a.35.35,0,0,1,.17.07.46.46,0,0,1,.14.14.61.61,0,0,1,0,.25.77.77,0,0,0,0,.27,1.08,1.08,0,0,1,0,.21,1.74,1.74,0,0,0,.05.22.93.93,0,0,1,0,.13l0,.17a.13.13,0,0,1,0,.09s0,.05,0,.1,0,.09,0,.12a.19.19,0,0,0,0,.08.59.59,0,0,0,.07.16.42.42,0,0,1,0,.17.25.25,0,0,1,0,.15.23.23,0,0,0,0,.14,1.46,1.46,0,0,0,.1.32.47.47,0,0,1,0,.35.45.45,0,0,1,.07.18.4.4,0,0,0,0,.15l0,.08a.25.25,0,0,1,0,.07.28.28,0,0,1,0,.09.14.14,0,0,0,0,.09c0,.11.07.22.11.34a.14.14,0,0,1,0,.07.13.13,0,0,0,0,.08.92.92,0,0,1,0,.25.68.68,0,0,0,0,.15.36.36,0,0,0,0,.09s0,.06,0,.09a.29.29,0,0,1,.09.16c0,.05,0,.12.07.19a1.52,1.52,0,0,1,.06.2.87.87,0,0,0,0,.19.56.56,0,0,0,0,.12.56.56,0,0,1,0,.12.59.59,0,0,1,0,.13.3.3,0,0,0,0,.13l.09.22.07.12a1,1,0,0,1,.09-.2s0-.05,0-.08l0-.08a.11.11,0,0,1,0-.08.19.19,0,0,0,0-.08.14.14,0,0,1,0-.07.2.2,0,0,0,.07-.11l0-.07s0-.1.05-.17l.06-.2a.78.78,0,0,1,0-.14l.07-.14a2,2,0,0,0,.14-.22.8.8,0,0,0,.08-.16.79.79,0,0,1,.12-.15.48.48,0,0,1,0-.18l.08-.15a.66.66,0,0,0,.08-.13s0-.06.09-.07a.43.43,0,0,1,0-.12l.06-.11a2,2,0,0,1,.11-.21l.13-.23.09-.16a.41.41,0,0,1,.05-.09.21.21,0,0,0,0-.09.14.14,0,0,1,0-.06l0-.1,0-.11a.56.56,0,0,0,0-.12.93.93,0,0,1,0-.13l.06-.08a.36.36,0,0,0,.07-.1.22.22,0,0,0,0-.12.35.35,0,0,1,0-.13.42.42,0,0,1,0-.1l0-.11a.37.37,0,0,0,0-.11.23.23,0,0,1,0-.14l0-.1a.36.36,0,0,0,0-.11c0-.07,0-.15.05-.22s0-.16,0-.25a1.6,1.6,0,0,1,.05-.21.42.42,0,0,1,.11-.18.38.38,0,0,1,.21,0l.17.06a.17.17,0,0,1,.06.11.12.12,0,0,1,.08.18l.05.11a.3.3,0,0,0,0,.1.26.26,0,0,0,.05.09.79.79,0,0,1,.09.22.19.19,0,0,0,.12.14.51.51,0,0,0,0,.13l0,.11c0,.07,0,.12.06.13s0,0,0,.05a.19.19,0,0,0,.05.11l0,0a.24.24,0,0,1,0,.12.13.13,0,0,0,.07.12.5.5,0,0,1,0,.12.2.2,0,0,0,0,.11s0,.07,0,.08l.08.05a2,2,0,0,0,.11.32,1.44,1.44,0,0,1,.08.25.47.47,0,0,1,.05.1.49.49,0,0,1,0,.15.59.59,0,0,1,.11.28.82.82,0,0,0,.11.3.16.16,0,0,1,0,.11.22.22,0,0,0,0,.1.19.19,0,0,0,.05.09.35.35,0,0,1,.06.09.25.25,0,0,1,0,.12.27.27,0,0,0,0,.12.25.25,0,0,1,0,.07.35.35,0,0,0,0,.08c0,.05,0,.09,0,.14a.7.7,0,0,0,.08.14,2.73,2.73,0,0,0,.14.33,2.8,2.8,0,0,0,.14.25.5.5,0,0,1,0,.13,1,1,0,0,0,0,.14l.08.14.09.15a.54.54,0,0,1,.1.18c0,.05.05.07.11.05s.06,0,0-.08a.15.15,0,0,1,0-.13.17.17,0,0,0,0-.15.36.36,0,0,1,0-.18,1.36,1.36,0,0,1,0-.17l.05-.16a1,1,0,0,0,0-.17,1,1,0,0,1,0-.17.48.48,0,0,0,0-.18.63.63,0,0,1,0-.19l0-.14a.83.83,0,0,0,0-.15,1.09,1.09,0,0,0,0-.18.49.49,0,0,1,0-.17.29.29,0,0,1,0-.09.36.36,0,0,0,0-.1.5.5,0,0,0,0-.12.37.37,0,0,1,0-.11l.06-.12a.41.41,0,0,0,.07-.11.81.81,0,0,0,0-.16,1.1,1.1,0,0,1,0-.18.57.57,0,0,1,0-.13.3.3,0,0,0,0-.13.31.31,0,0,0,.09-.18.65.65,0,0,1,.06-.21c0-.12.08-.21.1-.28a1.16,1.16,0,0,0,.06-.22.84.84,0,0,0,.08-.3,1.12,1.12,0,0,1,0-.21.64.64,0,0,0,0-.16.14.14,0,0,1,0-.07.27.27,0,0,0,0-.12.31.31,0,0,1,0-.1.49.49,0,0,1,.11-.19l.07-.06a.13.13,0,0,0,0-.1.13.13,0,0,1,0-.11.39.39,0,0,1,.28-.13H241l.16,0a.2.2,0,0,1,.14.05.46.46,0,0,1,.27,0h.31l.17,0,.18,0,.21,0a.21.21,0,0,1,.2,0,.56.56,0,0,1,0,.12A.11.11,0,0,0,242.77,336.89Z" style="fill:#fff"></path><path d="M250.22,336.75a.36.36,0,0,1,.07.1.74.74,0,0,1,0,.14.3.3,0,0,1,0,.13.09.09,0,0,1-.1.07s0,.08,0,.11a.21.21,0,0,0,0,.12,1.5,1.5,0,0,0,0,.3,1.36,1.36,0,0,1,0,.29.33.33,0,0,1,0,.12.54.54,0,0,1-.05.11l-.06.12a.36.36,0,0,1,0,.09.34.34,0,0,1-.28,0,.42.42,0,0,0-.31,0,.26.26,0,0,0-.22-.06.24.24,0,0,1-.23-.07.44.44,0,0,1-.25,0l-.26,0h-.16a.39.39,0,0,1-.14-.05.35.35,0,0,0-.14,0h-.12a.27.27,0,0,1-.13,0h-.24l-.4,0-.47,0a3,3,0,0,0-.43,0l-.45,0a.58.58,0,0,0,0,.29,2.54,2.54,0,0,1,0,.29c0,.11,0,.21,0,.31s0,.2,0,.31a.34.34,0,0,1,0,.09.29.29,0,0,0,0,.09c0,.05,0,.12,0,.21a1.85,1.85,0,0,1,0,.23,1,1,0,0,1,0,.18.31.31,0,0,0,0,.16,1.26,1.26,0,0,0,.28,0h1.43l.5,0,.25,0a.42.42,0,0,1,.24.05l.15,0,.14,0h.11l.11,0h.59l.13,0h.12c.05,0,.07,0,.08.05a.16.16,0,0,0,0,.09.49.49,0,0,1,.06.23c0,.08,0,.17,0,.28a.22.22,0,0,1,0,.14.44.44,0,0,0,0,.1,1.82,1.82,0,0,0,0,.33,1.84,1.84,0,0,0,.07.3s0,.09,0,.14a.3.3,0,0,1-.09.13.15.15,0,0,0-.09,0l-.09,0-.11,0-.09-.05s-.05,0-.1,0,0,0,0-.06a.92.92,0,0,1-.24.09.17.17,0,0,0-.14.06.24.24,0,0,0-.16-.05l-.17,0-.15,0-.2,0a.22.22,0,0,0-.16,0l-.16.06a.43.43,0,0,0-.25,0l-.21.07a.06.06,0,0,1-.08,0s0,0-.08,0a.29.29,0,0,1-.17,0,.16.16,0,0,0-.14.05.17.17,0,0,0-.2,0,.24.24,0,0,1-.22,0s0,0-.07,0h-.12l-.11,0h-.1a.3.3,0,0,1-.16,0,.18.18,0,0,0-.16,0,.1.1,0,0,0-.06.11.43.43,0,0,1,0,.16l0,.08a.24.24,0,0,0,0,.08.36.36,0,0,0,0,.11.11.11,0,0,1,0,.1,1.05,1.05,0,0,1,0,.24,1.82,1.82,0,0,0-.07.25,2,2,0,0,0,0,.34.45.45,0,0,1-.07.23.28.28,0,0,1,0,.15,1.85,1.85,0,0,1,0,.24v.41a1.1,1.1,0,0,1,0,.18l0,.09a.24.24,0,0,0,0,.08.26.26,0,0,0,0,.15.25.25,0,0,1,0,.17.42.42,0,0,0,.27.06l.34,0,.48,0,.44,0a.64.64,0,0,1,.2,0,.31.31,0,0,0,.19,0l.22-.05h.89l.22,0,.1,0h.32a.15.15,0,0,0,.11,0h0a.14.14,0,0,0,.14,0,.37.37,0,0,1,.21,0s0,0,.05.09a.13.13,0,0,0,0,.09s0,.07,0,.08a.09.09,0,0,1,.06.07,2.92,2.92,0,0,1,0,.66c0,.22,0,.45-.05.69a.13.13,0,0,1-.07.06l-.1.05-.09.05a.19.19,0,0,1-.1,0,.2.2,0,0,1-.11,0l-.12,0h-.52l-.27,0-.28,0a.34.34,0,0,1-.2-.05.1.1,0,0,0-.1,0,.11.11,0,0,1-.1,0,1,1,0,0,0-.3,0l-.34,0a1,1,0,0,0-.24,0l-.26,0h-.46l-.23,0a.5.5,0,0,1-.21,0l-.12,0a.22.22,0,0,0-.12,0,.32.32,0,0,1-.14,0l-.11,0-.23,0a.48.48,0,0,1-.24-.07.12.12,0,0,1-.1,0h-.29a.67.67,0,0,0-.19.05.28.28,0,0,1-.18,0q-.1-.06-.12-.12a.93.93,0,0,0,0-.13.46.46,0,0,1,0-.09.16.16,0,0,1,0-.1.24.24,0,0,1,0-.12.17.17,0,0,0,0-.1.78.78,0,0,0,0-.14.37.37,0,0,0-.05-.11.76.76,0,0,0,0-.3,1,1,0,0,1,0-.3.82.82,0,0,1,0-.18.38.38,0,0,0,0-.1.19.19,0,0,0,0-.08l0-.09s0-.07,0-.07,0,0,0-.08a1.4,1.4,0,0,0-.06-.24.36.36,0,0,1,0-.25.17.17,0,0,0,0-.12.25.25,0,0,1,0-.07.77.77,0,0,1,0-.15,1.42,1.42,0,0,1,.05-.16.36.36,0,0,0,0-.11.43.43,0,0,1,0-.11c0-.06,0-.1,0-.12a.08.08,0,0,1,0-.06.43.43,0,0,1,0-.11s0-.07,0-.11a.44.44,0,0,1,0-.2.17.17,0,0,0,0-.15.39.39,0,0,0,0-.28,1.66,1.66,0,0,1,0-.32.24.24,0,0,1,0-.12l0-.13a.36.36,0,0,0,0-.1.34.34,0,0,1,0-.1.92.92,0,0,0,0-.16v-.18a.24.24,0,0,1,0-.08s0-.06,0-.09a.22.22,0,0,1,0-.09.38.38,0,0,1,0-.1c0-.08,0-.13,0-.15a.38.38,0,0,0-.05-.11.13.13,0,0,1,0-.12c0-.1-.05-.16,0-.18s0,0,0-.08,0-.19,0-.27a1.85,1.85,0,0,1,0-.23.28.28,0,0,1,0-.09.29.29,0,0,0,0-.09.31.31,0,0,0,0-.11.17.17,0,0,1,0-.1,1.28,1.28,0,0,0,.07-.37.48.48,0,0,1,.07-.23.59.59,0,0,1,0-.42,2.05,2.05,0,0,0,.06-.49,2.22,2.22,0,0,0,0-.36,1.71,1.71,0,0,1,0-.39.61.61,0,0,0,0-.25.56.56,0,0,1,0-.17.34.34,0,0,1,0-.14l.06-.14,0-.1a.14.14,0,0,1,.07-.08,3.91,3.91,0,0,0,1.18.05,5.82,5.82,0,0,1,1.1,0l.3.06.3.05a.45.45,0,0,0,.2,0l.25,0a.77.77,0,0,0,.18,0h.08l.12,0a.27.27,0,0,0,.13,0,.76.76,0,0,0,.21,0l.21,0,.18,0h.19a1.25,1.25,0,0,1,.31,0,2.09,2.09,0,0,0,.35,0h.15l.1,0a1.5,1.5,0,0,0,.36,0A1.3,1.3,0,0,1,250.22,336.75Z" style="fill:#fff"></path><path d="M266.12,348.44a.16.16,0,0,1-.16.12.2.2,0,0,0-.16.13.21.21,0,0,0-.37,0l-.09,0a.53.53,0,0,0-.22.15.27.27,0,0,1-.1-.06l-.13-.05a1.31,1.31,0,0,0-.28,0h-.16l-.25,0a.43.43,0,0,0-.25,0,.22.22,0,0,1-.16,0,.17.17,0,0,0-.16.07c-.06,0-.1,0-.11,0s0,0-.11,0l-.2.08L263,349a.24.24,0,0,1-.16-.13.43.43,0,0,0-.13-.17,1.09,1.09,0,0,0,0-.18q0-.09,0-.12a.17.17,0,0,1-.06-.12.44.44,0,0,0,0-.15,1.28,1.28,0,0,1-.08-.23,2,2,0,0,0-.09-.29.21.21,0,0,1,0-.2.33.33,0,0,1-.11-.2,1.56,1.56,0,0,0-.07-.3c0-.06,0-.1,0-.13a.19.19,0,0,0,0-.08.81.81,0,0,1-.09-.27.68.68,0,0,0,0-.14,1.91,1.91,0,0,1-.1-.27c0-.07,0-.14-.06-.19l-.07-.1a.35.35,0,0,1-.07-.12.28.28,0,0,1,0-.15.28.28,0,0,0,0-.15l-.06-.13a.42.42,0,0,1,0-.1,1,1,0,0,1-.05-.23.32.32,0,0,0-.08-.2.26.26,0,0,0-.21,0l-.2.05h-.23l-.22.05a.5.5,0,0,1-.21,0h-.11a.28.28,0,0,1-.14,0,.33.33,0,0,0-.19,0h-.24l-.25,0a.28.28,0,0,1-.19,0l-.27,0a.32.32,0,0,0-.13,0h-.26a.82.82,0,0,1-.27,0l-.13.05a.2.2,0,0,0-.1.08.61.61,0,0,0-.33,0,.88.88,0,0,1-.33,0,.33.33,0,0,0-.15.25,1.43,1.43,0,0,1,0,.29,1.19,1.19,0,0,1-.11.26l-.14.24a1.34,1.34,0,0,0-.07.18l-.09.18a1.3,1.3,0,0,1-.06.12l0,.07s0,0,0,0a.5.5,0,0,1,0,.19.09.09,0,0,0,0,.08.3.3,0,0,0,0,.16,1,1,0,0,1,0,.16,1,1,0,0,1-.1.21.41.41,0,0,0-.06.23.62.62,0,0,0-.22.3.74.74,0,0,1-.21.31,1.32,1.32,0,0,1-.07.3l-.12.28a2,2,0,0,0-.1.29,1.72,1.72,0,0,0,0,.34l-.18.1a.2.2,0,0,1-.21,0,1.23,1.23,0,0,0-.28-.12l-.21-.09s-.09,0-.19,0h-.25a.51.51,0,0,1-.18,0l-.11,0H254a.27.27,0,0,1-.15,0,1.16,1.16,0,0,1-.41-.13,2.7,2.7,0,0,0-.38-.15.61.61,0,0,1,0-.15s0-.09,0-.15a.31.31,0,0,1,.09-.12s.05-.05,0-.1.07-.19.11-.28.09-.19.14-.29a1,1,0,0,1,.1-.22.6.6,0,0,1,.08-.08c0-.12.08-.2.09-.24l.05-.1,0-.14a.42.42,0,0,1,.09-.15l.16-.21a1,1,0,0,1,.11-.26.73.73,0,0,1,.09-.13,1,1,0,0,0,.14-.23l.13-.26a1.77,1.77,0,0,0,.12-.17.51.51,0,0,0,.09-.18.46.46,0,0,1,.05-.15.43.43,0,0,0,0-.07.49.49,0,0,1,0-.13.14.14,0,0,1,0-.06,1.87,1.87,0,0,0,.15-.32,2.53,2.53,0,0,1,.16-.33.42.42,0,0,1,.11-.16.21.21,0,0,0,.08-.19.37.37,0,0,0,.13-.15.66.66,0,0,1,.09-.19.51.51,0,0,1,.09-.16,1,1,0,0,0,.12-.16c0-.06.05-.12.08-.19a1.14,1.14,0,0,1,.1-.19.7.7,0,0,1,.09-.17.27.27,0,0,1,.16-.11.21.21,0,0,1,0-.19c0-.07.05-.13.08-.19a.38.38,0,0,1,.09-.13l.09-.14.09-.17a.69.69,0,0,1,.11-.23.21.21,0,0,0,.06-.08.11.11,0,0,0,0-.11.11.11,0,0,1,0-.08.55.55,0,0,0,.16-.18l.13-.23a1.74,1.74,0,0,0,.1-.23,1,1,0,0,1,.15-.24.19.19,0,0,1,0-.15.52.52,0,0,0,.07-.15.75.75,0,0,0,.07-.12.39.39,0,0,1,.06-.11.89.89,0,0,0,.15-.29l.06-.23a.58.58,0,0,1,.08-.14.57.57,0,0,0,.08-.13.42.42,0,0,0,.06-.14.14.14,0,0,1,.09-.11.82.82,0,0,1,.08-.3c0-.09.08-.18.11-.27a.73.73,0,0,1,.2-.25,1.49,1.49,0,0,0,0-.21.6.6,0,0,1,0-.2.56.56,0,0,1,.09-.14.38.38,0,0,0,.09-.13l.12-.38c0-.1.06-.2.1-.3s.07-.18.1-.29.07-.22.11-.31l.1-.21c0-.06.05-.13.08-.2a.66.66,0,0,0,.27-.25,1.92,1.92,0,0,0,.14-.36l.15,0h.1c.12,0,.19.07.21.13a.57.57,0,0,0,.11.16,1.29,1.29,0,0,1,.13.18c0,.06.06.11.08.16a1.12,1.12,0,0,1,.16.19,1.06,1.06,0,0,1,.11.25.77.77,0,0,1,.07.16,1.34,1.34,0,0,1,.07.18,1.24,1.24,0,0,1,.1.2c0,.07.07.15.1.23s.08.21.12.33.08.25.11.37a.58.58,0,0,1,0,.16.43.43,0,0,0,0,.14l.07.14a.3.3,0,0,0,.06.11c0,.11.1.22.15.35l.17.38.06.11.06.12.07.09a.3.3,0,0,0,.06.11l.06.12a.57.57,0,0,0,.08.13l.1.19a.68.68,0,0,1,.08.22l.08.27a1.77,1.77,0,0,1,.06.3,2.56,2.56,0,0,1,.17.37,3.25,3.25,0,0,1,.15.4l.1.1.1.11a.5.5,0,0,0,.07.13.12.12,0,0,1,.05.07,2.45,2.45,0,0,1,.12.31c0,.1.06.2.08.29a1,1,0,0,0,.09.18.38.38,0,0,1,.05.22.83.83,0,0,1,.16.26,1.13,1.13,0,0,1,.09.2l.13.21s.05.08.07.13a1.68,1.68,0,0,1,.2.34.83.83,0,0,1,0,.15.29.29,0,0,0,.05.14,2.25,2.25,0,0,0,.08.24.88.88,0,0,1,.09.26.43.43,0,0,1,.14.16c0,.06.05.12.08.17a.84.84,0,0,1,.07.16l.07.18a1.92,1.92,0,0,0,.14.29,1.17,1.17,0,0,1,.13.28,1.42,1.42,0,0,0,.08.18,1.42,1.42,0,0,1,.08.18.49.49,0,0,1,0,.15.17.17,0,0,0,0,.12c0,.06.06.14.11.23s.15.49.25.75.13.31.2.46A1.78,1.78,0,0,1,266.12,348.44Zm-4.8-5.38a.17.17,0,0,0,0-.14l0-.16a.41.41,0,0,1,0-.16.43.43,0,0,0,0-.16.36.36,0,0,0-.08-.12.24.24,0,0,1-.06-.09c0-.17,0-.32-.06-.44s0-.25-.06-.39a.5.5,0,0,1-.15-.17,1,1,0,0,1-.13-.24,1.62,1.62,0,0,1,0-.19,1.67,1.67,0,0,0-.08-.24,1.07,1.07,0,0,0-.07-.19c0-.1,0-.18-.05-.25a1.6,1.6,0,0,0-.05-.21l0-.1,0-.1c0-.07,0-.15-.07-.23a.19.19,0,0,0-.12-.16.26.26,0,0,0-.2.21.69.69,0,0,1-.12.27.35.35,0,0,0-.09.11,2.38,2.38,0,0,1-.07.27.58.58,0,0,1-.06.17,1.38,1.38,0,0,1-.06.16l-.06.15a.61.61,0,0,0-.07.1l0,.09c-.11.2-.2.38-.29.53a4.54,4.54,0,0,0-.21.45,1.54,1.54,0,0,0-.05.17.58.58,0,0,1-.06.17.38.38,0,0,1-.09.13.37.37,0,0,0-.08.14.12.12,0,0,0,0,.1.45.45,0,0,1,0,.11.86.86,0,0,0-.15.32,1.18,1.18,0,0,1-.07.2.82.82,0,0,0,.4.08h.41l.69,0c.24,0,.44-.05.61-.08a1.69,1.69,0,0,1,.45,0A.75.75,0,0,0,261.32,343.06Z" style="fill:#fff"></path><path d="M276.71,349a.6.6,0,0,1-.23.21.78.78,0,0,0-.19.12.12.12,0,0,1-.08,0,.3.3,0,0,1-.29-.05,1,1,0,0,1-.45.05,1.07,1.07,0,0,0-.4,0,.34.34,0,0,0-.15.06.36.36,0,0,1-.12.08.34.34,0,0,1-.19,0h-.19a.47.47,0,0,1-.11-.13,1.3,1.3,0,0,1-.08-.17A.91.91,0,0,1,274,349L274,349a.29.29,0,0,0-.06-.1,1.4,1.4,0,0,1-.2-.32,1.43,1.43,0,0,1-.1-.25l-.12-.15a1.11,1.11,0,0,1-.12-.16,1.31,1.31,0,0,0-.12-.15.48.48,0,0,1-.11-.15.35.35,0,0,1,0-.13.37.37,0,0,0,0-.14.91.91,0,0,0-.13-.19.38.38,0,0,1-.1-.24.67.67,0,0,1-.14-.15.33.33,0,0,0-.18-.11.53.53,0,0,0-.12-.21.58.58,0,0,1-.13-.22,1.7,1.7,0,0,1-.11-.23.19.19,0,0,1,0-.12.61.61,0,0,0-.05-.12.5.5,0,0,0-.15-.14.25.25,0,0,1-.13-.2c-.1,0-.16,0-.19-.08a.22.22,0,0,0-.17-.09,1.9,1.9,0,0,0-.22-.33,1.78,1.78,0,0,1-.25-.33,2,2,0,0,1-.44-.33A2.1,2.1,0,0,0,270,344a.36.36,0,0,0-.32-.19.41.41,0,0,0-.07.29.89.89,0,0,1,0,.33,2.63,2.63,0,0,1-.06.39,2.58,2.58,0,0,1-.1.33c0,.06,0,.1,0,.11s0,.06,0,.12l0,.12a.26.26,0,0,0,0,.15.37.37,0,0,0,.05.17.4.4,0,0,1,0,.2,1.26,1.26,0,0,1,0,.32,1.87,1.87,0,0,0-.07.34.62.62,0,0,1,0,.18.17.17,0,0,0,0,.07v.25a.93.93,0,0,1,0,.23.71.71,0,0,1,0,.3.7.7,0,0,0-.06.19c0,.08,0,.13,0,.14a.08.08,0,0,0,0,.05.43.43,0,0,0,0,.11.14.14,0,0,1,0,.09,1,1,0,0,1-.06.3.58.58,0,0,0,0,.3,1.34,1.34,0,0,0,.05.17.11.11,0,0,1,0,.08.32.32,0,0,1-.12.22.26.26,0,0,0-.11.2.94.94,0,0,0-.38,0,.42.42,0,0,1-.33,0l-.31.07a1,1,0,0,1-.34,0,.68.68,0,0,0-.25,0,.1.1,0,0,1-.1,0c0-.24-.06-.43-.09-.59a.44.44,0,0,1,.09-.41.52.52,0,0,0,0-.11.24.24,0,0,1,0-.12.85.85,0,0,0,0-.29.5.5,0,0,1,0-.16s0-.09.05-.12a.22.22,0,0,0,0-.11.31.31,0,0,0,0-.19.45.45,0,0,1,0-.2,1.5,1.5,0,0,1,0-.2,1.37,1.37,0,0,0,0-.19.53.53,0,0,0-.05-.2.2.2,0,0,1,0-.21.61.61,0,0,0,0-.22,2.62,2.62,0,0,1,0-.28.76.76,0,0,1,0-.16.88.88,0,0,1,0-.16,1.41,1.41,0,0,0,0-.21c0-.07,0-.13,0-.19a.84.84,0,0,1,0-.1.14.14,0,0,0,0-.09.79.79,0,0,1,0-.25v-.15a.37.37,0,0,0,0-.18,1.93,1.93,0,0,1,0-.23.36.36,0,0,0,0-.14.43.43,0,0,1,0-.16.39.39,0,0,0,0-.22l0-.1a.43.43,0,0,1,0-.11.49.49,0,0,0,0-.12,2,2,0,0,0,0-.33,1.87,1.87,0,0,1,0-.32q0-.35,0-.39a1.42,1.42,0,0,0,.05-.16c0-.05,0-.1,0-.16a2.11,2.11,0,0,0,0-.25.92.92,0,0,1,0-.32.36.36,0,0,1,0-.09.23.23,0,0,0,0-.11.78.78,0,0,0,0-.14.43.43,0,0,1,0-.16c0-.11,0-.22,0-.34s0-.24.05-.36a.49.49,0,0,0,0-.23.74.74,0,0,1,0-.12.64.64,0,0,1,0-.24.52.52,0,0,0,0-.25s0-.05,0-.09a.81.81,0,0,1,0-.16,1,1,0,0,0,0-.25,1,1,0,0,1,0-.16.25.25,0,0,0,0-.16.08.08,0,0,1,0-.05c0-.05,0-.08,0-.1a.22.22,0,0,1,0-.1q0-.14,0-.24c0-.06,0-.16,0-.27s0-.13,0-.15,0,0,0-.05a.24.24,0,0,0,0-.13s0-.09-.07-.14a.5.5,0,0,0,0-.25,1.31,1.31,0,0,1,0-.28.44.44,0,0,1,0-.1.58.58,0,0,0,0-.1,1,1,0,0,1-.07-.21.2.2,0,0,0,0-.09.47.47,0,0,0-.06-.15.3.3,0,0,1,0-.12.46.46,0,0,1,.05-.2l.11-.18.08-.06a.14.14,0,0,1,.11,0l.09-.08.09-.08a.29.29,0,0,1,.23,0,1,1,0,0,0,.17.1.73.73,0,0,1,.3,0,1.14,1.14,0,0,0,.36,0,.68.68,0,0,1,.23,0h.11a1.48,1.48,0,0,1,.37-.06l.25,0a.45.45,0,0,1,.17,0l.06,0a.18.18,0,0,1,.16,0l.15,0,.28,0,.29,0,.29,0,.3.07a.53.53,0,0,1,.1.06l.11.05a.46.46,0,0,0,.17,0,.32.32,0,0,1,.19,0,1.66,1.66,0,0,1,.38.11,1.39,1.39,0,0,0,.38.12l.2.06a.54.54,0,0,1,.2.1,2,2,0,0,1,.44,0,1.35,1.35,0,0,1,.34.12l.21.07a.59.59,0,0,1,.19.11.83.83,0,0,0,.16.12l.14.13.13.13.06.08a.45.45,0,0,1,.14.15l.06.07a.49.49,0,0,1,.13.1l.1.06a.39.39,0,0,0,.14.21,1.37,1.37,0,0,1,.18.16.94.94,0,0,1,.11.25.18.18,0,0,0,.09.13,3.35,3.35,0,0,1,.11.53.47.47,0,0,0,.16.36.57.57,0,0,0,0,.26,2.44,2.44,0,0,1,.1.24.25.25,0,0,0,0,.17.91.91,0,0,1,0,.17.39.39,0,0,1,0,.18.12.12,0,0,0,0,.16c-.05.14-.1.29-.14.43a1.33,1.33,0,0,1-.19.42.35.35,0,0,0-.05.08s-.05,0-.11,0a.15.15,0,0,1,0,.15.15.15,0,0,0-.06.13,1.54,1.54,0,0,0-.22.17,1.72,1.72,0,0,0-.17.23l-.1.1a.48.48,0,0,1-.13.09l-.21.13-.13.07a.44.44,0,0,0-.15.09l-.06.05-.12.06-.12.07a.53.53,0,0,1-.15.1l-.06,0-.35.13a2.09,2.09,0,0,0-.36.19.19.19,0,0,0-.18,0,1.21,1.21,0,0,1-.2.09.69.69,0,0,1-.24,0c-.07,0-.11,0-.13.14a.13.13,0,0,0,.08.18.9.9,0,0,1,.22.14.59.59,0,0,0,.1.17.43.43,0,0,0,.17.12.58.58,0,0,1,.17.25c0,.07.07.11.17.12a.88.88,0,0,0,.14.23c.08.07.13.12.13.15l0,.07c.06.09.1.15.13.16a.05.05,0,0,1,0,.05l.15.23a.8.8,0,0,1,.12.27l.11.11.12.11a.15.15,0,0,0,0,.1.18.18,0,0,1,0,.11c.08.08.15.17.24.25a.66.66,0,0,1,.17.32.24.24,0,0,1,.09.08.2.2,0,0,0,.11.06.9.9,0,0,0,.17.32,1.69,1.69,0,0,1,.22.29.86.86,0,0,0,.16.18,1.27,1.27,0,0,1,.13.19,1.88,1.88,0,0,0,.12.18l.14.24a.26.26,0,0,0,.13.14.23.23,0,0,0,.06.13.17.17,0,0,1,0,.15l.14.08.16.08.07.24A.5.5,0,0,1,276.71,349Zm-2.48-9.46a.77.77,0,0,1-.1-.25.81.81,0,0,0,0-.11.16.16,0,0,0-.06-.08L274,339a.75.75,0,0,0-.16-.24.2.2,0,0,1-.09-.09.12.12,0,0,0-.09-.08,1.79,1.79,0,0,1-.19-.18.11.11,0,0,0-.13-.06.2.2,0,0,0-.15-.13.18.18,0,0,1-.15-.13.67.67,0,0,1-.24-.08l-.19-.12a.31.31,0,0,0-.1.05.14.14,0,0,1-.13,0l-.16,0a.52.52,0,0,0-.15-.06.85.85,0,0,1-.28,0l-.15,0a1.06,1.06,0,0,0-.58-.06l-.33,0a3.6,3.6,0,0,1-.58,0,2.81,2.81,0,0,0-.58,0,.1.1,0,0,0,0,.12.17.17,0,0,1,0,.13.63.63,0,0,0,0,.28.77.77,0,0,1,0,.15c0,.1,0,.16,0,.18l0,.05V339a1.71,1.71,0,0,0,0,.45c0,.15,0,.3,0,.46s0,.33,0,.47l0,.42a1.06,1.06,0,0,1,0,.26.31.31,0,0,0,0,.13,1.43,1.43,0,0,0,0,.4,1.74,1.74,0,0,0,.39.05h.52l.33,0a.74.74,0,0,0,.33,0h.17l.17,0a.59.59,0,0,1,.21-.05h.1a1.07,1.07,0,0,1,.26-.08l.11,0,.52-.2.38-.12.24-.06a.28.28,0,0,1,.22-.19.25.25,0,0,0,.19-.23.19.19,0,0,1,.12,0,.08.08,0,0,0,.08-.07c0-.11.07-.22.11-.34a.83.83,0,0,1,.14-.3c0-.1,0-.16,0-.19A.5.5,0,0,0,274.23,339.53Z" style="fill:#fff"></path><path d="M287,336a.41.41,0,0,1,.08.13.48.48,0,0,1,.05.17.32.32,0,0,1,0,.17.16.16,0,0,1-.13.1c0,.05.06.09,0,.13a.37.37,0,0,0,0,.15,2.67,2.67,0,0,0,0,.4,1.51,1.51,0,0,1,0,.37.53.53,0,0,1-.05.15.61.61,0,0,0-.07.14l-.08.16a.3.3,0,0,1-.07.11.42.42,0,0,1-.35,0,.55.55,0,0,0-.4,0,.33.33,0,0,0-.28-.07.35.35,0,0,1-.31-.09.55.55,0,0,1-.31,0l-.33-.05h-.11a.09.09,0,0,1-.1,0,.64.64,0,0,1-.18-.06.39.39,0,0,0-.18,0,.26.26,0,0,0-.15,0l-.17,0h-.3l-.52-.05-.61-.05a3.27,3.27,0,0,0-.54,0,3.86,3.86,0,0,0-.58,0,.65.65,0,0,0-.07.36c0,.13,0,.25.05.39l0,.39c0,.13,0,.26,0,.39a.27.27,0,0,1,0,.12.45.45,0,0,0,0,.11c0,.07,0,.16,0,.27a1.62,1.62,0,0,1,0,.3.82.82,0,0,1,0,.23.3.3,0,0,0,0,.2,1,1,0,0,0,.36.06h1.83c.19,0,.41,0,.65,0l.31,0a.44.44,0,0,1,.31.06.41.41,0,0,1,.19,0,.58.58,0,0,0,.19,0h.14a.3.3,0,0,0,.14,0,3.32,3.32,0,0,1,.45,0l.3,0,.17,0h.15c.06,0,.1,0,.1.07a.22.22,0,0,0,.05.11.82.82,0,0,1,.07.3c0,.1,0,.22,0,.36a.32.32,0,0,1,0,.17.44.44,0,0,0,0,.14,1.75,1.75,0,0,0,.09.8c0,.06,0,.12-.07.19a.59.59,0,0,1-.1.17.15.15,0,0,0-.13,0,.17.17,0,0,1-.11,0,.29.29,0,0,1-.14,0l-.12-.06s-.07,0-.12,0-.08,0-.06-.08a.81.81,0,0,1-.31.12.19.19,0,0,0-.17.08.31.31,0,0,0-.21-.07l-.22.05-.19-.05-.26,0a.24.24,0,0,0-.2,0l-.21.07a.6.6,0,0,0-.32,0,1.07,1.07,0,0,0-.27.09c-.06,0-.09,0-.11,0s0-.05-.1,0a.28.28,0,0,1-.21,0,.22.22,0,0,0-.19.07.24.24,0,0,0-.25-.05.27.27,0,0,1-.28-.06.07.07,0,0,1-.1,0,.25.25,0,0,0-.15,0H282a.27.27,0,0,1-.13,0,.35.35,0,0,1-.2,0,.3.3,0,0,0-.21,0,.13.13,0,0,0-.07.14.67.67,0,0,1,0,.2.49.49,0,0,1,0,.11.34.34,0,0,0,0,.1.32.32,0,0,0,0,.14.19.19,0,0,1,0,.13,1.15,1.15,0,0,1,0,.31,3,3,0,0,0-.08.32,1.83,1.83,0,0,0-.07.44.48.48,0,0,1-.09.29.53.53,0,0,1,.05.2,2.66,2.66,0,0,1,0,.3v.53a.75.75,0,0,1,0,.24l0,.1a.22.22,0,0,0,0,.11.36.36,0,0,0,0,.2.37.37,0,0,1,0,.21.57.57,0,0,0,.34.07l.44,0,.62-.05c.21,0,.39,0,.56,0a1.09,1.09,0,0,1,.26,0,.49.49,0,0,0,.24,0l.29-.06a1.17,1.17,0,0,1,.32,0h.31l.22,0h.3l.27,0,.14,0a.27.27,0,0,1,.13,0h.27a.28.28,0,0,0,.14,0,.06.06,0,0,1,0,0,.23.23,0,0,0,.18,0,.48.48,0,0,1,.27,0,.12.12,0,0,1,.06.12.14.14,0,0,0,.07.11c0,.06,0,.1,0,.11s.06,0,.07.09a3.46,3.46,0,0,1,0,.85c0,.27-.06.57-.07.88a.24.24,0,0,1-.09.08l-.12.06-.12.07a.2.2,0,0,1-.13,0,.32.32,0,0,1-.14,0l-.15,0a.5.5,0,0,0-.17,0h-.5l-.34,0-.37,0a.48.48,0,0,1-.26-.06q-.09,0-.12,0a.17.17,0,0,1-.13,0,1.58,1.58,0,0,0-.38-.05l-.44,0a1.06,1.06,0,0,0-.31,0,1.69,1.69,0,0,1-.33,0h-.3a.71.71,0,0,0-.29,0,1.42,1.42,0,0,0-.3,0,.81.81,0,0,1-.27,0,.33.33,0,0,1-.15,0l-.16,0a.31.31,0,0,1-.17,0,.4.4,0,0,0-.15,0,1.36,1.36,0,0,0-.3,0,.63.63,0,0,1-.3-.1.24.24,0,0,1-.14,0l-.13,0h-.23a.84.84,0,0,0-.24.06.33.33,0,0,1-.24,0c-.09-.06-.14-.11-.15-.16a1.42,1.42,0,0,0-.05-.16,1,1,0,0,0-.05-.12.51.51,0,0,1,0-.13.38.38,0,0,1,0-.15.33.33,0,0,0,0-.14.44.44,0,0,0-.06-.16.67.67,0,0,1-.07-.53,1.64,1.64,0,0,1,0-.39,1.25,1.25,0,0,1,0-.24.6.6,0,0,0,0-.12.43.43,0,0,0,0-.11l0-.1c0-.06,0-.1,0-.1s0,0,0-.1a1.67,1.67,0,0,0-.08-.3.42.42,0,0,1,0-.33.3.3,0,0,0,0-.16.16.16,0,0,1,0-.09.57.57,0,0,1,0-.18.83.83,0,0,1,.06-.21.61.61,0,0,0,0-.15l0-.13c0-.09,0-.14,0-.16a.13.13,0,0,1,0-.08.36.36,0,0,1,0-.14.66.66,0,0,0,0-.14.74.74,0,0,1,0-.26.17.17,0,0,0-.06-.19.51.51,0,0,0,0-.36,1.78,1.78,0,0,1,0-.41.43.43,0,0,1,0-.16s0-.1,0-.16a.59.59,0,0,0,0-.13.59.59,0,0,1,0-.13,1.65,1.65,0,0,0,0-.21v-.22a.22.22,0,0,1,0-.11.41.41,0,0,0,0-.11.53.53,0,0,1,0-.11.93.93,0,0,1,0-.14c0-.1,0-.17,0-.19a1.16,1.16,0,0,0-.06-.15s0-.08.05-.14-.07-.21-.05-.23a.16.16,0,0,0,0-.11c0-.13,0-.24,0-.35a2.83,2.83,0,0,1,0-.29.6.6,0,0,1,0-.12.52.52,0,0,0,0-.11.46.46,0,0,0,0-.14.28.28,0,0,1,0-.13,1.78,1.78,0,0,0,.09-.47.51.51,0,0,1,.09-.3.75.75,0,0,1-.05-.54,3.38,3.38,0,0,0,.07-.63,2.37,2.37,0,0,0,0-.46,1.76,1.76,0,0,1,0-.51,1,1,0,0,0,0-.32,1,1,0,0,1,0-.21.58.58,0,0,1,0-.18l.07-.18a.42.42,0,0,0,.06-.14.18.18,0,0,1,.1-.09,5.5,5.5,0,0,0,1.51.06,8.51,8.51,0,0,1,1.42,0l.38.08.39.07a1.07,1.07,0,0,0,.25,0,2,2,0,0,1,.32-.05.92.92,0,0,0,.24,0h.1a.41.41,0,0,1,.16,0l.16,0a.84.84,0,0,0,.27,0l.26,0,.24,0h.25a2.13,2.13,0,0,1,.39,0l.44.07a.36.36,0,0,1,.21,0l.12,0a1.81,1.81,0,0,0,.46,0A1.74,1.74,0,0,1,287,336Z" style="fill:#fff"></path><path d="M246.15,370.14a4.2,4.2,0,0,1-.1.93c-.07.32-.14.61-.22.89a.59.59,0,0,0,0,.13.37.37,0,0,1,0,.12l-.08.14a.31.31,0,0,0-.08.13,1.49,1.49,0,0,0-.06.48.9.9,0,0,1-.08.42,2.34,2.34,0,0,1-.16.23.45.45,0,0,0-.09.16c-.08.12-.14.22-.19.31a.38.38,0,0,1-.16.17.44.44,0,0,1,0,.1.19.19,0,0,0,0,.15.65.65,0,0,0-.24.33,1,1,0,0,1-.22.38,1.91,1.91,0,0,0-.17.22l-.08.1a.67.67,0,0,1-.14.11.41.41,0,0,0-.14.1,2.17,2.17,0,0,1-.32.34.57.57,0,0,0-.18.28.54.54,0,0,0-.23.11.8.8,0,0,0-.21.2.14.14,0,0,1-.07.08.74.74,0,0,1-.23.14.23.23,0,0,0-.13.06,1.81,1.81,0,0,1-.37.22,1.32,1.32,0,0,0-.37.24,1.06,1.06,0,0,0-.33.2.66.66,0,0,1-.17.12.82.82,0,0,1-.24.1.19.19,0,0,0-.17.16,2.68,2.68,0,0,0-.47.17,1.3,1.3,0,0,1-.43.1,1,1,0,0,1-.42.2,5.18,5.18,0,0,1-.56.1h-.46a.84.84,0,0,0-.27.08.69.69,0,0,1-.24.05.2.2,0,0,1-.17,0l-.19-.09a2.11,2.11,0,0,0-.42.06l-.3,0a.66.66,0,0,1-.28,0l-.27,0s-.1,0-.21,0a.56.56,0,0,1-.22-.08.29.29,0,0,1-.32,0,1.73,1.73,0,0,0-.32-.14,1.86,1.86,0,0,0-.45-.06.55.55,0,0,1-.4-.14,1,1,0,0,1-.76-.28,2.86,2.86,0,0,1-.41-.11l-.21-.12a.51.51,0,0,0-.16-.12,1.1,1.1,0,0,1-.14-.11.52.52,0,0,0-.17-.11l-.1-.07a1,1,0,0,1-.13-.16.58.58,0,0,0-.12-.14.32.32,0,0,1-.2-.06,1.3,1.3,0,0,1-.19-.17l-.27-.22a.56.56,0,0,1-.19-.26l-.28-.09a.38.38,0,0,1-.2-.14l-.3-.3a1,1,0,0,1-.19-.23,1.13,1.13,0,0,0-.18-.33,1.17,1.17,0,0,0-.16-.15l-.3-.41-.18-.28a.43.43,0,0,1-.14-.16,1.08,1.08,0,0,1-.08-.19.72.72,0,0,0-.09-.2.37.37,0,0,0-.15-.13.43.43,0,0,0-.08-.34.94.94,0,0,1-.23-.54l0-.29-.09-.15a.29.29,0,0,1,0-.18.66.66,0,0,0,0-.25,1.66,1.66,0,0,1-.06-.16.46.46,0,0,1,0-.2.59.59,0,0,0,0-.19l-.07-.34a1,1,0,0,1,0-.17.13.13,0,0,0-.08-.15,2.32,2.32,0,0,0,.05-.32.57.57,0,0,1,0-.24.18.18,0,0,0,0-.06,1.7,1.7,0,0,1,0-.32.86.86,0,0,0,0-.35.23.23,0,0,1,0-.18.66.66,0,0,0,0-.25q0-.25-.06-.39a.83.83,0,0,1,0-.23.38.38,0,0,1,0-.16.41.41,0,0,0,0-.16,1.49,1.49,0,0,1,0-.31.45.45,0,0,0,0-.13.58.58,0,0,1-.05-.14.23.23,0,0,1,0-.11,1,1,0,0,1,0-.24,1.44,1.44,0,0,1,.05-.24.9.9,0,0,0,0-.28.52.52,0,0,1,.05-.23,2.57,2.57,0,0,0,.26-.47c.05-.13.1-.25.15-.35s.11-.31.15-.46a.67.67,0,0,1,.24-.37.82.82,0,0,1,.08-.3,1.45,1.45,0,0,0,.1-.25,2.26,2.26,0,0,1,.18-.3.72.72,0,0,0,.1-.18,1.45,1.45,0,0,0,.14-.29,1.55,1.55,0,0,1,0-.15,1.78,1.78,0,0,0,.27-.33,2.78,2.78,0,0,0,.12-.26.74.74,0,0,0,.37-.37.22.22,0,0,0,.18-.12c0-.07.11-.1.23-.08a.36.36,0,0,1,.21-.19c0-.06.06-.1.1-.11a.28.28,0,0,0,.1-.09.67.67,0,0,0,.31-.12l.27-.16a.94.94,0,0,1,.28-.1,1.1,1.1,0,0,0,.31-.15.65.65,0,0,0,.33,0,.72.72,0,0,0,.22-.15.54.54,0,0,0,.31,0l.27-.09.44-.14.52-.11.36-.08a2.68,2.68,0,0,0,.35-.1l.23-.07a.15.15,0,0,1,.09,0,.22.22,0,0,1,.12,0l.13,0a.6.6,0,0,0,.23.05h.1a1.15,1.15,0,0,0,.32.07,4.2,4.2,0,0,0,.59.14.54.54,0,0,1,.35.16.75.75,0,0,1,.38-.05,2.75,2.75,0,0,0,.4,0,.2.2,0,0,1,.16.07.26.26,0,0,0,.11.1,1.65,1.65,0,0,1,.46.06.47.47,0,0,0,.25.06.29.29,0,0,1,.14,0l.15.06.13.06.37.1a.44.44,0,0,1,.29.22c.06,0,.1,0,.11-.06s.07,0,.14,0a1.13,1.13,0,0,0,.43.11,2,2,0,0,1,.47.12,1.93,1.93,0,0,1,.26.17.31.31,0,0,0,.1.08l.22.08a.18.18,0,0,1,.13.15.38.38,0,0,1,.19,0,.36.36,0,0,1,.15.08.65.65,0,0,1,.21.16l.2.18c.1.11.17.17.22.18l.13.05.11.17.09.15a.48.48,0,0,1,.28.11.51.51,0,0,0,.25.14,1.43,1.43,0,0,0,.28.32,1.37,1.37,0,0,1,.19.27l.08.15a.37.37,0,0,1,.07.14,1.34,1.34,0,0,0,.07.18l.18.28a.56.56,0,0,1,.07.43.32.32,0,0,1,.16.2,1,1,0,0,0,.14.28.6.6,0,0,1,.12.26.24.24,0,0,0,0,.13,1.73,1.73,0,0,1,.08.27l.06.33a.54.54,0,0,1,0,.18.17.17,0,0,0,0,.14,2.58,2.58,0,0,0,.12.42,2,2,0,0,0,.2.38,2.84,2.84,0,0,0,0,.5,5.06,5.06,0,0,1,0,.53,2.74,2.74,0,0,0,0,.63A2.82,2.82,0,0,1,246.15,370.14Zm-2.47-1.6a.93.93,0,0,0,0-.23.91.91,0,0,1,0-.23,1.55,1.55,0,0,1,0-.22.83.83,0,0,0,0-.22.77.77,0,0,0-.07-.16,1.14,1.14,0,0,1-.09-.16.14.14,0,0,1,0-.16s0-.07,0-.11a1.93,1.93,0,0,1-.13-.32c0-.13-.07-.25-.1-.37l-.21-.22-.09-.12a1.47,1.47,0,0,1-.17-.27.62.62,0,0,0-.08-.12,1.76,1.76,0,0,0-.37-.29,2.78,2.78,0,0,1-.41-.29.75.75,0,0,1-.2-.15l-.19-.17a1.43,1.43,0,0,1-.29-.2l-.1-.12a1.08,1.08,0,0,0-.42-.1.5.5,0,0,1-.38-.2,1,1,0,0,1-.6-.08,1.52,1.52,0,0,0-.69-.1l-.11-.06-.14-.08a.48.48,0,0,1-.3,0l-.23-.08-.16-.05-.14-.05-.32-.09-.3-.07a.65.65,0,0,1-.34,0,.81.81,0,0,0-.25,0,1,1,0,0,0-.24,0,.69.69,0,0,1-.22,0,3.22,3.22,0,0,0-.63-.11,1.53,1.53,0,0,1-.43-.05.86.86,0,0,0-.21-.07.72.72,0,0,1-.2-.09.29.29,0,0,1-.12.11.41.41,0,0,0-.11.07.53.53,0,0,0-.25.15.87.87,0,0,1-.21.17l-.24.08a1.22,1.22,0,0,0-.24.1l-.09.09-.09.1a.35.35,0,0,1-.12.07.24.24,0,0,0-.11.06l-.2.2a.41.41,0,0,1-.21.15.75.75,0,0,1-.15.23.91.91,0,0,0-.17.23,2,2,0,0,0-.18.23.42.42,0,0,1-.21.16.55.55,0,0,1-.07.28.59.59,0,0,0-.09.29,1.24,1.24,0,0,0-.19.28l-.09.2c-.08.17-.13.28-.17.35l-.11.18a1.33,1.33,0,0,1-.16.32c-.06.12-.1.22-.13.29a1.8,1.8,0,0,0-.09.33c0,.15-.07.32-.11.49a1.12,1.12,0,0,0,0,.43.85.85,0,0,0,0,.24.26.26,0,0,1,0,.15,2.41,2.41,0,0,0-.1.83c0,.23,0,.44.08.66a3.68,3.68,0,0,1,0,.47.94.94,0,0,0,0,.38.37.37,0,0,0,.05.17l.09.15a1.54,1.54,0,0,1,0,.19.58.58,0,0,0,.05.2,4.2,4.2,0,0,1,.14.43.83.83,0,0,0,.09.25.36.36,0,0,0,.15.15l.15.15.11.19.11.2c.1.12.15.2.18.24a.44.44,0,0,0,.08.11.4.4,0,0,0,.15.14l.15.15.12.2.13.22a3.88,3.88,0,0,1,.62.4c.18.14.36.31.55.49a2.94,2.94,0,0,1,.58.16l.54.21.2.06.21.05a.62.62,0,0,0,.19,0l.2,0a1.2,1.2,0,0,1,.36.08l.33.1a1.72,1.72,0,0,0,.39,0,.71.71,0,0,1,.37.08.45.45,0,0,1,.19-.07l.2,0a.74.74,0,0,1,.52-.14,2,2,0,0,0,.6-.05.37.37,0,0,1,.16-.09l.09,0,.28-.14a1,1,0,0,1,.25-.11l.16-.05.16-.05a.58.58,0,0,1,.19-.16l.11,0,.14-.11a.21.21,0,0,1,.18,0,.37.37,0,0,1,.2-.19l.28-.11a.31.31,0,0,1,.09-.12l.1-.08.18-.19a.36.36,0,0,0,.09-.09,3.75,3.75,0,0,1,.37-.44.18.18,0,0,1,.08-.14l.1-.08a1.42,1.42,0,0,1,.07-.22l.09-.2a.86.86,0,0,1,.11-.19.48.48,0,0,0,0-.22.22.22,0,0,0,.15-.15c0-.07.05-.14.08-.22a3.88,3.88,0,0,1,.2-.34,1.12,1.12,0,0,1,.1-.16l.07-.15a.56.56,0,0,1,.07-.13,2.75,2.75,0,0,1,.13-.32.28.28,0,0,0,.07-.11.65.65,0,0,0,0-.2.44.44,0,0,1,0-.22l.1-.17a.45.45,0,0,0,.08-.24.31.31,0,0,0,0-.19.41.41,0,0,1,0-.22,1.34,1.34,0,0,1,.07-.18l.09-.21c0-.11.07-.21.1-.32a.45.45,0,0,0,0-.23,1,1,0,0,0,0-.24v-.13a1.89,1.89,0,0,1,.06-.18A.42.42,0,0,0,243.68,368.54Z" style="fill:#fff"></path><path d="M260.09,365.9a.43.43,0,0,0,0,.21.15.15,0,0,1,0,.09l0,.22a1,1,0,0,1-.06.22c0,.22-.1.45-.16.68a2.48,2.48,0,0,1-.27.65,2.41,2.41,0,0,0-.19.27l-.09.16a1.87,1.87,0,0,0-.36.64l-.26.24a1.57,1.57,0,0,1-.32.24l-.4.29a.47.47,0,0,1-.42.06.57.57,0,0,1-.26.15l-.25.08-.29.15-.19.08a.62.62,0,0,1-.18.05.34.34,0,0,0-.12,0,.31.31,0,0,1-.23.14l-.43.18a.81.81,0,0,1-.37.05.57.57,0,0,0-.27,0l-.12,0-.48.06a.69.69,0,0,1-.32,0l-.19.08-.2.05a.33.33,0,0,1-.21,0,.81.81,0,0,0-.25,0,1.47,1.47,0,0,1-.46.06h-.27l-.59,0a1.33,1.33,0,0,0-.54.14c0,.29,0,.58.06.85a5.75,5.75,0,0,1,0,.83,1,1,0,0,1,0,.19.47.47,0,0,0,0,.17,4.17,4.17,0,0,0,0,.52c0,.16,0,.32,0,.47a1.94,1.94,0,0,1,0,.24,1.09,1.09,0,0,0,0,.26.85.85,0,0,0,0,.23.27.27,0,0,1,0,.23,1.08,1.08,0,0,1,.1.64,3.84,3.84,0,0,0,0,.67.91.91,0,0,0,0,.17.51.51,0,0,1,0,.13.73.73,0,0,1,0,.36,1.7,1.7,0,0,0,0,.39,2.72,2.72,0,0,0-.42.15.6.6,0,0,1-.49,0,1.32,1.32,0,0,0-.57,0l-.47.11a1.94,1.94,0,0,1-.68,0,3.21,3.21,0,0,1-.62-.22.47.47,0,0,0,0-.24.51.51,0,0,1,0-.2.91.91,0,0,1,0-.16l.07-.13a.1.1,0,0,1,0-.13.21.21,0,0,0,.05-.13,1,1,0,0,0,0-.24,1,1,0,0,1,0-.24.58.58,0,0,1,0-.18.58.58,0,0,0,0-.19,2,2,0,0,0,0-.41,1.92,1.92,0,0,1-.05-.41c0-.08,0-.15.05-.23s0-.16,0-.25a.13.13,0,0,0,0-.12.29.29,0,0,1,0-.13.56.56,0,0,0,.06-.26.45.45,0,0,1,0-.11,1.55,1.55,0,0,1,0-.22,1.77,1.77,0,0,0,0-.24.94.94,0,0,1,0-.42.79.79,0,0,0,0-.25.64.64,0,0,0,0-.2,1.42,1.42,0,0,0-.08-.18,1.52,1.52,0,0,1-.05-.25c0-.11,0-.21,0-.28a.6.6,0,0,1,0-.24.54.54,0,0,0,0-.22.62.62,0,0,1,0-.24.41.41,0,0,0,0-.11c0-.09,0-.14,0-.17a.19.19,0,0,0,0-.08.55.55,0,0,1,0-.26,1.54,1.54,0,0,1,0-.17.77.77,0,0,0,0-.15.61.61,0,0,1,0-.15,1.7,1.7,0,0,1,0-.32.75.75,0,0,0,0-.3.52.52,0,0,0,0-.11c0-.05,0-.1-.05-.14s0-.22,0-.43a2.15,2.15,0,0,1,0-.51.81.81,0,0,1,0-.33.83.83,0,0,0,0-.22,1.5,1.5,0,0,0,0-.2c0-.07,0-.14-.05-.22s0-.24,0-.36a1.81,1.81,0,0,1,0-.39,1,1,0,0,1,0-.41c0-.11,0-.23,0-.35a.64.64,0,0,0,0-.3.31.31,0,0,1,0-.3,1.18,1.18,0,0,1-.14-.56,1.44,1.44,0,0,1,0-.54.4.4,0,0,1-.09-.27v-.41c0-.14,0-.3,0-.49a.79.79,0,0,1,.1-.45,2.83,2.83,0,0,1-.15-.65,1.7,1.7,0,0,1,.08-.68,1.06,1.06,0,0,1,.48,0,2.8,2.8,0,0,0,.58,0,7.93,7.93,0,0,0,.85-.14c.27-.06.56-.1.87-.14l.45,0a2.25,2.25,0,0,0,.44,0l.57-.08a2.39,2.39,0,0,1,.65,0,.4.4,0,0,1,.21,0l0,0a.25.25,0,0,0,.16,0,.6.6,0,0,1,.23,0,7.71,7.71,0,0,1,.88.14,5.22,5.22,0,0,1,.82.25.62.62,0,0,0,.23.08l.11,0,.39.09a1.07,1.07,0,0,1,.23.07,2.46,2.46,0,0,1,.48.2l.28.19a1,1,0,0,0,.22.12l.15.08a1.42,1.42,0,0,1,.13.12.67.67,0,0,0,.14.11l.3.22.32.22.15.09.12.09c.08.11.13.17.17.18a.06.06,0,0,1,.06,0,2.85,2.85,0,0,1,.22.24.94.94,0,0,1,.17.26,1.82,1.82,0,0,0,.13.24.44.44,0,0,0,.08.11,1.11,1.11,0,0,1,.14.34.91.91,0,0,0,.07.25c0,.08.05.15.08.21a1.08,1.08,0,0,1,.05.21.86.86,0,0,1,.05.27,2.64,2.64,0,0,0,0,.28q0,.11.06.24A1.09,1.09,0,0,1,260.09,365.9Zm-2.91-.09a.83.83,0,0,0-.07-.46A.86.86,0,0,1,257,365a1.15,1.15,0,0,0-.14-.17l-.11-.15a2,2,0,0,0-.24-.3,1,1,0,0,1-.22-.27.6.6,0,0,1-.21-.32.29.29,0,0,1-.26-.07.24.24,0,0,0-.26-.05.93.93,0,0,0-.26-.18l-.25-.14a1.07,1.07,0,0,0-.43-.08,1.6,1.6,0,0,1-.32,0h-.74l-.32,0a1.39,1.39,0,0,0-.3,0h-.23l-.23,0a2.93,2.93,0,0,1-.44,0h-.27a.84.84,0,0,1-.33.16l-.35.09c0,.39,0,.8.06,1.25s0,.88.07,1.28v.2a.45.45,0,0,0,0,.19,1.26,1.26,0,0,1,0,.42.4.4,0,0,0,0,.24l.06.14a1.38,1.38,0,0,1,.06.16.55.55,0,0,1,0,.18.77.77,0,0,0,0,.21.35.35,0,0,1,.06.22.16.16,0,0,0,0,.12.42.42,0,0,0,.06.14.41.41,0,0,1,0,.16.8.8,0,0,0,.09.39,1.77,1.77,0,0,0,.52,0l.38-.09a1.07,1.07,0,0,0,.34-.1l.16-.09a1.15,1.15,0,0,1,.31,0,1.18,1.18,0,0,0,.31-.05,1.89,1.89,0,0,1,.4-.15,1.55,1.55,0,0,1,.31,0l.35-.13.32-.1a.25.25,0,0,1,.12,0l.13,0a.93.93,0,0,1,.24-.07.27.27,0,0,0,.13,0,.83.83,0,0,0,.28-.16.27.27,0,0,1,.22-.07,1.15,1.15,0,0,0,.14-.23.26.26,0,0,1,.07-.11.17.17,0,0,1,.13,0,.15.15,0,0,0,.14,0,1.91,1.91,0,0,1,.16-.32c.06-.09.12-.2.19-.32a.59.59,0,0,1,.08-.39A1.07,1.07,0,0,0,257.18,365.81Z" style="fill:#fff"></path><path d="M272.39,361.34a.56.56,0,0,1,.11.17.79.79,0,0,1,.06.22.41.41,0,0,1,0,.22.19.19,0,0,1-.17.12c.06.06.08.12.05.17a.42.42,0,0,0-.05.2,4.17,4.17,0,0,0,0,.5,1.6,1.6,0,0,1,0,.49.84.84,0,0,1-.07.19l-.09.17a2.2,2.2,0,0,1-.09.21.56.56,0,0,1-.09.14.56.56,0,0,1-.46,0,.74.74,0,0,0-.51,0,.41.41,0,0,0-.36-.09.44.44,0,0,1-.39-.12.64.64,0,0,1-.41,0,2.65,2.65,0,0,0-.42-.06.34.34,0,0,0-.14,0h-.13a.9.9,0,0,1-.23-.08.53.53,0,0,0-.23-.06.46.46,0,0,0-.2,0,.54.54,0,0,1-.22,0h-.39c-.21,0-.43-.06-.66-.07l-.78-.07a5.36,5.36,0,0,0-.7-.05,6.27,6.27,0,0,0-.74.05.78.78,0,0,0-.09.47,4.1,4.1,0,0,1,.06.49c0,.17,0,.34,0,.51s0,.33,0,.5a.77.77,0,0,1,0,.15.41.41,0,0,0,0,.15,2.18,2.18,0,0,0,0,.34c0,.14,0,.27,0,.39a2.33,2.33,0,0,1,0,.29.41.41,0,0,0,0,.26,1.35,1.35,0,0,0,.46.07l.31,0h.29l.49,0h1.26c.25,0,.53,0,.84,0l.4-.06a.59.59,0,0,1,.4.08.69.69,0,0,1,.24-.05.9.9,0,0,0,.24,0h.19a.44.44,0,0,0,.18,0H271l.39,0,.22,0h.2c.07,0,.12,0,.12.08a.34.34,0,0,0,.06.15.85.85,0,0,1,.09.38c0,.13,0,.29,0,.47a.54.54,0,0,1,0,.22.41.41,0,0,0,0,.17,4.85,4.85,0,0,0,0,.54,2.33,2.33,0,0,0,.12.49L272,370a.55.55,0,0,1-.14.22.18.18,0,0,0-.16,0,.27.27,0,0,1-.14.05.3.3,0,0,1-.18,0l-.16-.08s-.08-.05-.15,0-.1,0-.08-.1a1.08,1.08,0,0,1-.39.15.29.29,0,0,0-.23.1.38.38,0,0,0-.27-.08,1.27,1.27,0,0,0-.28.06,1.05,1.05,0,0,0-.24-.06l-.34,0a.3.3,0,0,0-.26,0,.9.9,0,0,1-.26.09.87.87,0,0,0-.42,0l-.34.11c-.08,0-.12,0-.14-.05s-.06-.08-.13-.06a.51.51,0,0,1-.27.06.26.26,0,0,0-.24.08.31.31,0,0,0-.33-.06.35.35,0,0,1-.36-.08q0,.09-.12.06a.33.33,0,0,0-.2,0,.47.47,0,0,0-.17,0l-.17,0a.51.51,0,0,1-.27,0,.29.29,0,0,0-.26,0q-.12.07-.09.18a1.13,1.13,0,0,1,0,.26s0,.09,0,.13a.68.68,0,0,0,0,.14.47.47,0,0,0,0,.17.25.25,0,0,1,0,.17,1.44,1.44,0,0,1-.06.4c0,.13-.07.27-.1.41a2.13,2.13,0,0,0-.1.57.6.6,0,0,1-.11.37.63.63,0,0,1,.07.25c0,.12,0,.25,0,.39v.68a.87.87,0,0,1-.05.31l0,.13a.36.36,0,0,0,0,.14.44.44,0,0,0,0,.25.45.45,0,0,1,0,.28.71.71,0,0,0,.45.09l.56,0,.79-.07a6.71,6.71,0,0,1,.72-.05,1.14,1.14,0,0,1,.33.05.55.55,0,0,0,.31,0l.38-.08a1.09,1.09,0,0,1,.4,0,1.32,1.32,0,0,1,.4,0l.29,0h.38l.36,0,.17,0a.47.47,0,0,1,.17,0,1.16,1.16,0,0,0,.23,0l.11,0a.3.3,0,0,0,.19,0l.06,0a.24.24,0,0,0,.23,0,.68.68,0,0,1,.35,0,.22.22,0,0,1,.08.15.19.19,0,0,0,.08.15c0,.08,0,.12,0,.14s.08.05.1.11a5,5,0,0,1,0,1.09q-.06.54-.09,1.14a.35.35,0,0,1-.11.1l-.16.08-.15.09a.37.37,0,0,1-.18.05.39.39,0,0,1-.18,0l-.18-.05a.78.78,0,0,0-.22,0l-.24,0-.4,0-.45,0-.47,0a.84.84,0,0,1-.33-.08c-.08,0-.13,0-.16,0a.2.2,0,0,1-.16.06,1.63,1.63,0,0,0-.5-.07l-.56,0a1.33,1.33,0,0,0-.4,0,2.77,2.77,0,0,1-.42,0,1.21,1.21,0,0,1-.38,0h-.38a2.22,2.22,0,0,0-.38,0,1,1,0,0,1-.35,0,.6.6,0,0,1-.2,0,.38.38,0,0,0-.19,0,.43.43,0,0,1-.23,0,.63.63,0,0,0-.19,0,1.59,1.59,0,0,0-.39-.06.86.86,0,0,1-.39-.13.26.26,0,0,1-.17,0,.47.47,0,0,0-.17,0,.38.38,0,0,1-.18,0h-.12a1.57,1.57,0,0,0-.31.08.47.47,0,0,1-.31,0,.45.45,0,0,1-.18-.2c0-.06,0-.13-.07-.21a.77.77,0,0,0-.06-.15.47.47,0,0,1,0-.17.34.34,0,0,1,0-.2.48.48,0,0,0,0-.17,1.29,1.29,0,0,0-.07-.21l-.09-.2a1.29,1.29,0,0,0,0-.48,1.69,1.69,0,0,1,0-.51,1.11,1.11,0,0,1,0-.29,1.37,1.37,0,0,0,0-.16.59.59,0,0,0,0-.14l0-.14c0-.08,0-.12,0-.13s0,0,0-.12a1.6,1.6,0,0,0-.1-.39.58.58,0,0,1,0-.41.31.31,0,0,0,0-.21.3.3,0,0,1,0-.12,1.12,1.12,0,0,1,0-.24c0-.08.05-.17.08-.26a1.12,1.12,0,0,0,0-.2c0-.05,0-.11-.05-.17s0-.17,0-.19a.15.15,0,0,1,0-.1,1.11,1.11,0,0,1,0-.19.55.55,0,0,0,0-.18.89.89,0,0,1,0-.33.26.26,0,0,0-.08-.25.69.69,0,0,0,.05-.47,2.1,2.1,0,0,1-.05-.51.37.37,0,0,1,0-.21c0-.06,0-.13,0-.2a1.1,1.1,0,0,0,0-.18.47.47,0,0,1,0-.17,2.46,2.46,0,0,0,0-.26v-.29a.78.78,0,0,1,0-.14.3.3,0,0,0,0-.13.75.75,0,0,1,0-.15.59.59,0,0,1,0-.17c0-.14,0-.23.06-.26a1.59,1.59,0,0,0-.08-.18q0-.07.06-.18-.09-.25-.06-.3a.2.2,0,0,0,0-.14c0-.17,0-.32-.05-.45s0-.25,0-.37a.77.77,0,0,1,0-.15.49.49,0,0,0,0-.15.5.5,0,0,0,0-.19.42.42,0,0,1,0-.16,2.22,2.22,0,0,0,.12-.6.59.59,0,0,1,.11-.38,1,1,0,0,1-.07-.7,3.75,3.75,0,0,0,.09-.82,2.27,2.27,0,0,0,0-.58,2.84,2.84,0,0,1,0-.65,1.11,1.11,0,0,0,0-.42,1,1,0,0,1,0-.27.62.62,0,0,1,0-.23l.09-.23.08-.17a.27.27,0,0,1,.13-.13,6.68,6.68,0,0,0,1.94.08,9.29,9.29,0,0,1,1.82,0l.49.1a4,4,0,0,0,.5.08.87.87,0,0,0,.32,0l.41-.06a1.81,1.81,0,0,0,.31,0l.13,0a.65.65,0,0,1,.2,0,.66.66,0,0,0,.21,0,1.47,1.47,0,0,0,.34.05l.35,0,.29,0a.92.92,0,0,1,.33,0,2.67,2.67,0,0,1,.5.06l.57.08a.59.59,0,0,1,.27,0l.15,0a3,3,0,0,0,.59,0A2.27,2.27,0,0,1,272.39,361.34Z" style="fill:#fff"></path><path d="M291.17,361c0,.17,0,.39,0,.68a1.3,1.3,0,0,1-.12.63,2.43,2.43,0,0,1-.08.89,4.47,4.47,0,0,0-.17.9,3.17,3.17,0,0,0,0,.43,1.69,1.69,0,0,1,0,.44,2.35,2.35,0,0,0-.06.42l0,.49a3.09,3.09,0,0,1-.07.35,3.4,3.4,0,0,0-.07.34c0,.14,0,.27,0,.39a2.31,2.31,0,0,1,0,.37c0,.31,0,.59,0,.86s0,.53,0,.79,0,.37,0,.55l0,.53c0,.2,0,.38-.05.56s0,.35,0,.52a1.59,1.59,0,0,0,0,.26c0,.1,0,.2,0,.31a.88.88,0,0,0,0,.17.34.34,0,0,1,0,.2,1.23,1.23,0,0,1,0,.2l-.07.21a5,5,0,0,0-.06.57,2.47,2.47,0,0,1-.08.6.14.14,0,0,1,0,.16.71.71,0,0,0-.08.18c0,.29,0,.59-.06.89s0,.56-.05.81,0,.35,0,.55a2.43,2.43,0,0,1,0,.6.64.64,0,0,1-.06.18,2.09,2.09,0,0,0-.1.21,1,1,0,0,0,0,.35c0,.13,0,.28,0,.45a1.31,1.31,0,0,1,.05.27.85.85,0,0,1-.09.27l-.14.21a1.27,1.27,0,0,1-.39,0,.93.93,0,0,0-.35,0l-.26-.15a.71.71,0,0,1-.24-.2.71.71,0,0,0-.17-.21.38.38,0,0,1-.11-.11l-.25-.27a.34.34,0,0,1-.07-.19.24.24,0,0,1-.12,0l-.11-.08a.18.18,0,0,0-.11-.13l-.16-.08a.26.26,0,0,1-.06-.15c0-.07-.07-.08-.19,0a.17.17,0,0,0-.05-.13s0-.07,0-.15a.6.6,0,0,0-.19-.06l-.18-.07a.44.44,0,0,1-.13-.14c0-.06-.08-.13-.12-.21l-.15-.12-.13-.13c-.09-.08-.13-.13-.13-.15a.15.15,0,0,0-.05-.08l-.2-.16a.62.62,0,0,0-.17-.11,1,1,0,0,0-.11-.21.45.45,0,0,0-.19-.14.41.41,0,0,1-.05-.17.26.26,0,0,0-.06-.13c-.06-.06-.1-.1-.1-.13a.36.36,0,0,0,0-.09,2.19,2.19,0,0,1-.22-.29c0-.07-.07-.14-.1-.2l-.16-.18-.07-.07a1.06,1.06,0,0,1-.09-.25,1.13,1.13,0,0,0-.09-.28.57.57,0,0,0-.15-.17.61.61,0,0,1-.17-.19l-.11-.16a.32.32,0,0,0-.14-.14.69.69,0,0,0-.2-.15.21.21,0,0,1-.1-.06,1.62,1.62,0,0,1-.14-.24l-.09-.19a.83.83,0,0,1-.16-.21l-.09-.16a1.86,1.86,0,0,0-.35-.34.65.65,0,0,1-.23-.39l-.24-.23-.22-.26c-.07-.13-.15-.21-.21-.22a.35.35,0,0,1-.15-.07.29.29,0,0,0-.17-.21.27.27,0,0,1-.18-.18.13.13,0,0,1-.12,0l-.11-.09-.23-.11a.74.74,0,0,1-.08-.13,1.09,1.09,0,0,0-.08-.15l-.13-.11a.34.34,0,0,1-.12-.12c-.08-.13-.13-.24-.17-.32a.33.33,0,0,0-.2-.16.61.61,0,0,0-.08-.26c0-.07-.08-.14-.12-.22l-.2-.25a.63.63,0,0,0-.1-.12c-.08-.07-.11-.13-.1-.17a.17.17,0,0,0,0-.08c-.1-.12-.16-.21-.19-.25l-.09-.14a2.12,2.12,0,0,0-.18-.25l-.12-.12a14.29,14.29,0,0,0-.28,2.32c0,.81-.08,1.67-.11,2.57a2.15,2.15,0,0,0,0,.43,2.57,2.57,0,0,1,0,.48.59.59,0,0,1,0,.14.17.17,0,0,0,0,.14,1.72,1.72,0,0,0,0,.33c0,.1,0,.24,0,.4v.51c0,.21,0,.43,0,.64a2.63,2.63,0,0,0,0,.49l.09.5a4.64,4.64,0,0,0,.12.47,1.25,1.25,0,0,1,0,.47.62.62,0,0,1-.08.33.46.46,0,0,0,0,.33,2.12,2.12,0,0,0-.2.24.35.35,0,0,1-.21.17.54.54,0,0,1-.22,0l-.22-.07a.25.25,0,0,1-.21,0l-.07,0a1.39,1.39,0,0,0-.33,0,.36.36,0,0,1-.33-.09l-.14,0a.26.26,0,0,1-.14,0,.8.8,0,0,1-.23,0,.52.52,0,0,0-.23,0h-.21a1.12,1.12,0,0,1-.31-.05.79.79,0,0,1-.16-.23l-.14-.41c0-.09-.05-.18-.07-.25a.74.74,0,0,1,0-.12.32.32,0,0,0,0-.14c0-.06,0-.11,0-.16a.59.59,0,0,1,0-.13.63.63,0,0,1,0-.19,1.23,1.23,0,0,0,0-.2c0-.13,0-.26,0-.39s0-.29-.05-.46a.53.53,0,0,0,0-.13.49.49,0,0,1,0-.12,3.85,3.85,0,0,1,.1-.68,2.38,2.38,0,0,0,0-.77,1,1,0,0,0,0-.23.85.85,0,0,1,0-.23,2.38,2.38,0,0,1,0-.39l.06-.36c0-.06,0-.11,0-.14a.24.24,0,0,1,0-.12.24.24,0,0,1,.05-.13c0-.05.05-.1.07-.14a1.6,1.6,0,0,1,0-.48c0-.19,0-.41.07-.67a1.52,1.52,0,0,1,0-.54,1.21,1.21,0,0,0,.07-.4,1.09,1.09,0,0,1,0-.34c0-.09,0-.18.05-.25v-.28a.84.84,0,0,0,0-.34.43.43,0,0,1,0-.19.61.61,0,0,0,0-.24,2,2,0,0,0,0-.24.34.34,0,0,0,0-.16,1.24,1.24,0,0,0-.06-.18,4.71,4.71,0,0,1,.06-.83,2,2,0,0,0,0-.59.42.42,0,0,0,0-.18l0-.12a1.05,1.05,0,0,1,0-.37.82.82,0,0,0,0-.21.23.23,0,0,0,0-.18,1.21,1.21,0,0,1-.05-.18.54.54,0,0,1,0-.19.13.13,0,0,0-.07-.18.72.72,0,0,0,0-.31.39.39,0,0,1,0-.15.47.47,0,0,0,0-.22.11.11,0,0,1,0-.08.27.27,0,0,0,0-.17.2.2,0,0,1,0-.1c0-.06,0-.12,0-.18s0-.13,0-.21a.5.5,0,0,0,0-.16,1.15,1.15,0,0,1,0-.16c0-.11,0-.21,0-.3s0-.18,0-.25a.33.33,0,0,0,0-.17.34.34,0,0,1,0-.15,2.36,2.36,0,0,0,0-.51.77.77,0,0,1,0-.34.51.51,0,0,1,.33-.27.47.47,0,0,1,.47.11,2.18,2.18,0,0,1,.41.07c.11,0,.17.13.17.29a.19.19,0,0,1,.17.1.37.37,0,0,0,.15.13,1.89,1.89,0,0,1,.37.23l.26.26.13.13a1.43,1.43,0,0,1,.12.21.13.13,0,0,0,.06.07l.12.15.15.19a3.25,3.25,0,0,0,.26.27,2.26,2.26,0,0,1,.25.28l.11.15a.49.49,0,0,0,.14.15c.11.12.22.26.33.4l.36.45a1.64,1.64,0,0,0,.14.22.49.49,0,0,0,.2.17.55.55,0,0,0,.28.39,1,1,0,0,0,.2.37,1.27,1.27,0,0,1,.23.34,1.9,1.9,0,0,1,.28.29c.07.1.16.2.25.31a.31.31,0,0,1,.08.11.61.61,0,0,0,.1.14.38.38,0,0,1,.13.19.23.23,0,0,0,.06.13,1,1,0,0,0,.1.17,1,1,0,0,1,.1.17,3.64,3.64,0,0,1,.37.6,5.39,5.39,0,0,0,.25.48l.21.3a1.43,1.43,0,0,1,.11.21,3.21,3.21,0,0,1,.28.29l.22.27.22.26a1.43,1.43,0,0,1,.12.21.28.28,0,0,1,0,.09c.11.08.16.12.16.15s0,0,0,.05a3.29,3.29,0,0,0,.46.57c.18.19.36.37.55.54l.27.25a1,1,0,0,1,.26.3,1.17,1.17,0,0,0,.12.21l.06.08a2.47,2.47,0,0,0,.33.41,1.87,1.87,0,0,0,.45.33c0-.11,0-.21,0-.31V372a.19.19,0,0,1,.09-.16,3.11,3.11,0,0,1-.09-.36.51.51,0,0,1,.07-.4.7.7,0,0,1-.05-.31.25.25,0,0,0,0-.17.34.34,0,0,0,0-.15.61.61,0,0,1,0-.15,1,1,0,0,1,0-.38,2.63,2.63,0,0,0,.07-.42v-.82a3.26,3.26,0,0,1,.07-.74.26.26,0,0,1,.05-.14.73.73,0,0,0,.06-.14.49.49,0,0,1,0-.26.54.54,0,0,0,0-.19c0-.11,0-.22,0-.33a1.52,1.52,0,0,1,0-.43,1,1,0,0,1,0-.4,2.72,2.72,0,0,0,.07-.33.42.42,0,0,1,0-.25,1.94,1.94,0,0,0,0-.24s0-.09,0-.15a.91.91,0,0,1,0-.17.82.82,0,0,1,0-.28,2.68,2.68,0,0,0,.07-.27c0-.1,0-.21,0-.31a.68.68,0,0,1,.06-.33.71.71,0,0,1-.07-.16l-.07-.18a1.86,1.86,0,0,0,.08-.68,3.82,3.82,0,0,1,0-.75.34.34,0,0,1,0-.22.19.19,0,0,0,0-.1.38.38,0,0,0-.05-.19.2.2,0,0,1,0-.17,1.09,1.09,0,0,1,.17-.24.47.47,0,0,1,.24-.18.38.38,0,0,1,.23,0,.49.49,0,0,0,.23.06,1.72,1.72,0,0,0,.54-.06,4.2,4.2,0,0,1,.54-.13,1.59,1.59,0,0,1,.54,0,2.21,2.21,0,0,0,.63,0,4.44,4.44,0,0,1,.55.12l.23.07A.21.21,0,0,1,291.17,361Z" style="fill:#fff"></path><rect x="209.03" y="444.28" width="99.11" height="9.15" style="fill:#800080"></rect><path d="M212.32,294.57a3.54,3.54,0,0,1,.55.43l1.55,1.33,5.77,5.08-.1,0,40.77-.11,39.27.1-.12.05L306,295l1.6-1.71.42-.43c.1-.09.15-.14.16-.13l-.12.16-.39.46-1.54,1.77c-1.38,1.55-3.36,3.77-5.83,6.56l-.05.05h-.08l-39.27.1-40.77-.11H220l-.05,0-5.67-5.18-1.49-1.39A4.46,4.46,0,0,1,212.32,294.57Z" style="fill:#263238"></path><path d="M212.78,471.29c-.14,0,.28-11.28.95-25.17S215.06,421,215.2,421s-.28,11.28-.95,25.17S212.92,471.3,212.78,471.29Z" style="fill:#263238"></path><path d="M306.66,471.29c-.15,0-.72-11.2-1.29-25s-.91-25-.76-25,.71,11.2,1.28,25S306.8,471.28,306.66,471.29Z" style="fill:#263238"></path><path d="M237.1,319.72a10.57,10.57,0,0,1,1.56,1.64l3.54,4.1c2.21,2.56,4.11,4.72,4.7,5.51l.13.17-.19,0c-.29,0-.42-.08-.42-.11s.14-.05.43-.05l-.07.14a68.46,68.46,0,0,1-5-5.28c-1.38-1.61-2.59-3.1-3.43-4.21A9.62,9.62,0,0,1,237.1,319.72Z" style="fill:#fff"></path><path d="M255.51,311a17.15,17.15,0,0,1,.22,3c.1,2,.21,4.45.34,7.16s.32,5.15.45,7.15a19,19,0,0,1,.11,3,15.69,15.69,0,0,1-.48-2.94c-.21-1.82-.44-4.35-.6-7.16s-.2-5.34-.19-7.18A16.37,16.37,0,0,1,255.51,311Z" style="fill:#fff"></path><path d="M278.72,315.14a15.15,15.15,0,0,1-1.45,2.31l-3.71,5.44-3.67,5.46a15.27,15.27,0,0,1-1.61,2.21,13.25,13.25,0,0,1,1.3-2.41c.86-1.45,2.11-3.42,3.55-5.55s2.81-4,3.84-5.36A14.22,14.22,0,0,1,278.72,315.14Z" style="fill:#fff"></path><path d="M233.24,397.22a9.94,9.94,0,0,1,1.61-1.66c1.05-1,2.54-2.26,4.24-3.62s3.3-2.53,4.48-3.34a9.78,9.78,0,0,1,2-1.2,11,11,0,0,1-1.76,1.5l-4.37,3.45-4.33,3.49A9.92,9.92,0,0,1,233.24,397.22Z" style="fill:#fff"></path><path d="M257.16,413c-.15,0-.26-5.74-.26-12.82s.11-12.82.26-12.82.26,5.74.26,12.82S257.3,413,257.16,413Z" style="fill:#fff"></path><path d="M281.18,396.67a114.17,114.17,0,0,1-11.31-10.38,56.64,56.64,0,0,1,5.83,5A55.66,55.66,0,0,1,281.18,396.67Z" style="fill:#fff"></path><path d="M245.61,316.65,245,317l.62.32a1.16,1.16,0,0,1,.47.46l.35.61.32-.62a1.16,1.16,0,0,1,.46-.47l.61-.35-.63-.33a1.17,1.17,0,0,1-.46-.45l-.35-.61-.33.62A1.13,1.13,0,0,1,245.61,316.65Z" style="fill:#ebebeb"></path><path d="M284,387.37l-.61.35.63.33a1.17,1.17,0,0,1,.46.45l.35.61.33-.62a1.13,1.13,0,0,1,.45-.47l.61-.34-.62-.33a1.13,1.13,0,0,1-.47-.45l-.35-.61-.32.62A1.13,1.13,0,0,1,284,387.37Z" style="fill:#ebebeb"></path><path d="M280.72,326.48l-1,.54,1,.51a1.74,1.74,0,0,1,.72.7l.54.95.51-1a1.82,1.82,0,0,1,.7-.73l1-.54-1-.51a1.76,1.76,0,0,1-.73-.7l-.54-.95-.5,1A1.82,1.82,0,0,1,280.72,326.48Z" style="fill:#ebebeb"></path><path d="M248,396.15l-.95.54,1,.5a1.78,1.78,0,0,1,.73.71l.54,1,.51-1a1.82,1.82,0,0,1,.7-.73l.95-.53-1-.51a1.82,1.82,0,0,1-.72-.71l-.54-.94-.51,1A1.76,1.76,0,0,1,248,396.15Z" style="fill:#ebebeb"></path><path d="M227.31,355.08l-.95.54,1,.51a1.8,1.8,0,0,1,.72.7l.54.95.51-1a1.8,1.8,0,0,1,.7-.72l.95-.54-1-.51a1.76,1.76,0,0,1-.73-.7l-.54-.95-.51,1A1.8,1.8,0,0,1,227.31,355.08Z" style="fill:#ebebeb"></path></g><g id="freepik--speech-bubble--inject-5"><path d="M93.17,174.16l-8.68-1.59a24.59,24.59,0,1,1,6.49-6h0Z" style="fill:#fff"></path><path d="M93.17,174.16l-.12-.47-.4-1.44c-.36-1.31-.88-3.21-1.57-5.68a.08.08,0,0,0-.11-.06h0l.14.13a24.59,24.59,0,0,0,4.77-11.2,24,24,0,0,0-.11-8,24.45,24.45,0,0,0-3.13-8.45,24.85,24.85,0,0,0-16.54-11.58,25.2,25.2,0,0,0-11.36.51,21.51,21.51,0,0,0-2.8,1,13.85,13.85,0,0,0-1.36.62c-.44.23-.9.43-1.33.69a26.22,26.22,0,0,0-2.53,1.66l-1.21.93-1.12,1a24.71,24.71,0,0,0,18.57,42.55,24.51,24.51,0,0,0,11.64-3.79h-.07L91,173.8l1.64.28.55.08-.58-.12-1.67-.33-6.41-1.24a.09.09,0,0,0-.07,0,24.37,24.37,0,0,1-29.79-38.27l1.1-1,1.19-.91a23.5,23.5,0,0,1,2.47-1.64c.43-.25.88-.44,1.32-.67a12.39,12.39,0,0,1,1.33-.62,22.72,22.72,0,0,1,2.74-.94A25,25,0,0,1,76,127.89a24.52,24.52,0,0,1,16.29,11.37,24.12,24.12,0,0,1,3.12,8.3,23.73,23.73,0,0,1,.15,7.86,24.58,24.58,0,0,1-4.63,11.13.09.09,0,0,0,0,.13.09.09,0,0,0,.12,0h0l-.15,0c.73,2.43,1.28,4.3,1.67,5.58.19.63.33,1.11.44,1.46S93.17,174.16,93.17,174.16Z" style="fill:#263238"></path><polygon points="59.98 152.46 63.41 148.67 70.68 154.51 81.49 142.1 85.02 145.54 70.52 161.49 59.98 152.46" style="fill:#800080"></polygon></g><g id="freepik--Character--inject-5"><path d="M89.6,241.89A74.62,74.62,0,0,0,94.17,224c.85-6.71.79-13.6,2.83-20s6.79-12.62,13.44-13.83l5.7,2.09a317.12,317.12,0,0,1-5.25,60.49,3.62,3.62,0,0,1-.88,2.1,3.57,3.57,0,0,1-2.82.54,58,58,0,0,1-14.42-3.39A7.31,7.31,0,0,1,89,249.48C87.56,247.29,88.63,244.36,89.6,241.89Z" style="fill:#263238"></path><path d="M108.93,165.79a24,24,0,0,1,18.16-10.06c4.21-.25,6,.55,9.07,1.23a13.36,13.36,0,0,1,7.81,4.69,22.32,22.32,0,0,1,4.82,10,63.13,63.13,0,0,1,1.05,11.46,21,21,0,0,1-3.1,10.94l-9.66,2.13c-5.37.42-10.82.83-16.11-.16s-10.51-3.59-13.52-8.06C103.27,181.75,104.46,171.79,108.93,165.79Z" style="fill:#263238"></path><path d="M117.59,165.35l12.76-5.74,3.41.25c7.63-.31,13.26,7.87,13.58,14,.36,6.86.53,15.26-.34,20.36-1.74,10.28-10.39,11.51-10.39,11.51l.19,8.56,4.36,2.28-.71,23.85-15.89,2.45-7.94-29-.11-7.34L114.32,169A3.6,3.6,0,0,1,117.59,165.35Z" style="fill:#ae7461"></path><path d="M131.63,192.57a2.22,2.22,0,0,1,3.37-1.64,2.94,2.94,0,0,1,1.25,2.73h0a2.69,2.69,0,0,1-1.88,1.2l-.36,0a2.44,2.44,0,0,1-1.66-.57A2.19,2.19,0,0,1,131.63,192.57Z" style="fill:#6f4439"></path><path d="M143.18,182.39a1.33,1.33,0,0,1-1.29,1.32,1.27,1.27,0,0,1-1.35-1.2,1.33,1.33,0,0,1,1.29-1.32A1.27,1.27,0,0,1,143.18,182.39Z" style="fill:#263238"></path><path d="M145.17,177.44c-.17.17-1.16-.58-2.58-.59s-2.47.69-2.62.51.1-.38.55-.71a3.69,3.69,0,0,1,2.1-.62,3.41,3.41,0,0,1,2,.69C145.11,177.06,145.25,177.37,145.17,177.44Z" style="fill:#263238"></path><path d="M136.56,189a8.9,8.9,0,0,1,2.31-.39c.36,0,.7-.11.77-.35a1.84,1.84,0,0,0-.23-1.08c-.33-.88-.68-1.81-1-2.77-1.44-4-2.49-7.2-2.33-7.25s1.47,3.09,2.91,7l1,2.79a2.13,2.13,0,0,1,.17,1.43.91.91,0,0,1-.6.52,2.45,2.45,0,0,1-.62.08A9.38,9.38,0,0,1,136.56,189Z" style="fill:#263238"></path><path d="M136.63,205.76a26.1,26.1,0,0,1-13.74-3.82s3.59,7.17,13.9,6.32Z" style="fill:#6f4439"></path><path d="M132.37,189.89c.23,0,.21,1.53,1.52,2.64s3,1,3,1.17-.37.3-1.06.31a3.8,3.8,0,0,1-2.47-.89,3.31,3.31,0,0,1-1.18-2.21C132.09,190.26,132.26,189.88,132.37,189.89Z" style="fill:#263238"></path><path d="M144.47,172.5c-.24.35-1.33.11-2.6.2s-2.33.41-2.6.1,0-.49.46-.84a3.86,3.86,0,0,1,2.07-.7,3.71,3.71,0,0,1,2.12.47C144.4,172,144.57,172.34,144.47,172.5Z" style="fill:#263238"></path><path d="M127.87,182.42a1.32,1.32,0,0,0,1.31,1.29,1.27,1.27,0,0,0,1.33-1.22,1.33,1.33,0,0,0-1.31-1.3A1.27,1.27,0,0,0,127.87,182.42Z" style="fill:#263238"></path><path d="M126,177.74c.17.17,1.15-.6,2.57-.63s2.48.65,2.63.47-.1-.39-.56-.7a3.6,3.6,0,0,0-2.11-.59,3.45,3.45,0,0,0-2,.72C126,177.35,125.89,177.67,126,177.74Z" style="fill:#263238"></path><path d="M126.62,173.17c.29.31,1.38,0,2.7-.1s2.43.15,2.68-.2c.11-.16-.07-.48-.57-.77a4.07,4.07,0,0,0-2.2-.47,4,4,0,0,0-2.13.7C126.64,172.68,126.5,173,126.62,173.17Z" style="fill:#263238"></path><path d="M116.84,186.16c0-.77-.86-2.59-1.61-2.71-2-.34-5.66-.22-5.75,4.92-.13,7,6.94,5.69,7,5.48S116.82,188.8,116.84,186.16Z" style="fill:#ae7461"></path><path d="M114.55,191.26s-.13.08-.33.17a1.24,1.24,0,0,1-.92,0A3,3,0,0,1,112,188.7a4.09,4.09,0,0,1,.37-1.75,1.44,1.44,0,0,1,.94-.92.61.61,0,0,1,.71.35c.09.2,0,.34.08.35s.16-.11.11-.41a.82.82,0,0,0-.27-.44,1,1,0,0,0-.68-.19,1.72,1.72,0,0,0-1.29,1.07,4.09,4.09,0,0,0-.46,1.94c0,1.42.72,2.75,1.73,3.06a1.3,1.3,0,0,0,1.12-.16C114.53,191.43,114.57,191.27,114.55,191.26Z" style="fill:#6f4439"></path><path d="M114.94,183.48l1.86,1.77c7.35-7.69,21.54-26.75,20.75-25.62a22.33,22.33,0,0,0-11-.7c-5.66,1.22-16.36,4.56-15.9,11.28S114.94,183.48,114.94,183.48Z" style="fill:#263238"></path><path d="M155.11,285.52c.56.57,9.58,20.65,9,34.6s-9,62.49-9,62.49l-13.44,75.1H122.16s0-48,1.75-61.15,3.78-20.38,4.37-30,.74-30,1.33-29.16S84.58,455,84.58,455l-19.19-1.27s7-40.11,8.41-47.72,7.29-30.94,11.65-42.74,5.91-41.23,12-53.9,6.09-16.64,6.09-16.64Z" style="fill:#263238"></path><path d="M140.53,440.82l-1,18.65s18.62,7.31,18.77,10.78L122,469.56l.4-29.13Z" style="fill:#263238"></path><path d="M122,469.56l0-2.82,34.81,1.64s1.6.73,1.4,1.87Z" style="fill:#455a64"></path><path d="M140.1,459.3c0,.18-.89.24-1.78.79s-1.35,1.29-1.52,1.22.12-1.09,1.2-1.74S140.14,459.14,140.1,459.3Z" style="fill:#fff"></path><path d="M143.87,461c0,.17-.73.45-1.35,1.19s-.8,1.53-1,1.52-.27-1,.52-1.92S143.87,460.78,143.87,461Z" style="fill:#fff"></path><path d="M146,465.54c-.16,0-.39-.86.08-1.82s1.31-1.33,1.38-1.18-.45.66-.83,1.45S146.12,465.52,146,465.54Z" style="fill:#fff"></path><path d="M71.72,438.54l-6.09,21.78-9.78,15.83a2.3,2.3,0,0,0,.89,3.26h0a2.3,2.3,0,0,0,2.12,0c4.26-2.16,19.91-10.18,20.27-11.8.41-1.87,8-22.54,8-22.54Z" style="fill:#263238"></path><path d="M56.74,479.41l22.83-13.24-.28.92A3.48,3.48,0,0,1,77.84,469c-1.86,1.2-7.08,4.39-18.92,10.45a2.31,2.31,0,0,1-2.18,0Z" style="fill:#455a64"></path><path d="M64.56,471.47a7,7,0,0,0-1.38-2.26A7.1,7.1,0,0,0,60.83,468c0-.06.32-.15.85-.07a3.65,3.65,0,0,1,1.83.94,3.56,3.56,0,0,1,1.05,1.77C64.68,471.14,64.62,471.47,64.56,471.47Z" style="fill:#fff"></path><path d="M62.14,473.9c-.13.06-.61-.86-1.64-1.52a16.85,16.85,0,0,0-2-.91,2.59,2.59,0,0,1,2.31.5C61.94,472.73,62.27,473.87,62.14,473.9Z" style="fill:#fff"></path><path d="M68.56,468.63a24.19,24.19,0,0,0-2.36-2.5,23,23,0,0,0-3-1.73,6.37,6.37,0,0,1,5.34,4.23Z" style="fill:#fff"></path><path d="M71,462.17c-.1.11-1.14-.75-2.68-1.28s-2.88-.53-2.88-.68a4.4,4.4,0,0,1,3,.21A4.45,4.45,0,0,1,71,462.17Z" style="fill:#fff"></path><path d="M72.94,457.08a11.62,11.62,0,0,0-2.76-1.4,11.4,11.4,0,0,0-3.08-.16s.29-.25.88-.39a4.91,4.91,0,0,1,2.33.07,5,5,0,0,1,2.06,1.1C72.81,456.71,73,457.05,72.94,457.08Z" style="fill:#fff"></path><path d="M173.84,240.77l-14.55,17.14L159,253.2l-16.1,3.45s4,23.23,7.36,25,5.75,2.42,13.57-7.7,16.47-27.16,16.47-27.16Z" style="fill:#ae7461"></path><path d="M174.3,240.3s.88-2.31,4.74-3,11.58,1,12.4,1.29,6.79-.93,8.18.57,1,1.95,1,1.95l-16.21,2.78Z" style="fill:#ae7461"></path><path d="M173.84,240.77s2.62-3.29,8.34-2.47c2.8.4,8.49,1.91,9.31,1.91s5.77-1.24,7-.62a1.76,1.76,0,0,1,1.1,1.71s4.56-2.23,5.54-.76l.26.39s2.72-1.09,2.88,1.08l-4.09,2.27s3.88-1.3,4.09,1.43c0,0-7.1,2.37-8.18,2.32a14.57,14.57,0,0,1-3.14-.83,40.25,40.25,0,0,1-5.43.42c-1.73-.11-10.73-.93-11.2-.88S173.84,240.77,173.84,240.77Z" style="fill:#ae7461"></path><path d="M199.12,241.43s.66-.26,1.8-.63a12.34,12.34,0,0,1,2.07-.5,4,4,0,0,1,1.25,0,1.16,1.16,0,0,1,.94.67l0,.05,0,0a.41.41,0,0,1-.06.59,3.29,3.29,0,0,1-.84.44l-2,.8-4,1.56c-.61.23-1.2.48-1.73.66s-1.09.2-1.58.28a30.77,30.77,0,0,0-3.19.45,3.1,3.1,0,0,0,.87,0c.56,0,1.36-.06,2.36-.16a12.13,12.13,0,0,0,1.64-.23c.59-.19,1.15-.41,1.78-.63,1.24-.46,2.59-1,4-1.53.69-.27,1.36-.54,2-.82a3.62,3.62,0,0,0,1-.52.88.88,0,0,0,.29-.58.92.92,0,0,0-.19-.6l0,.09a1.51,1.51,0,0,0-1.28-1,4.14,4.14,0,0,0-1.37,0,10.48,10.48,0,0,0-2.1.6A6.13,6.13,0,0,0,199.12,241.43Z" style="fill:#6f4439"></path><path d="M196.5,247.26a3.06,3.06,0,0,0,1.93-.07,38.08,38.08,0,0,0,4.18-2c1.6-.83,3-1.61,4-2.19a8.67,8.67,0,0,0,1.61-1,7.44,7.44,0,0,0-1.76.75c-1.06.51-2.51,1.24-4.1,2.07s-3,1.62-4.08,2.06A10.34,10.34,0,0,1,196.5,247.26Z" style="fill:#6f4439"></path><path d="M175.57,239.64s.45-.28,1.31-.67a8.65,8.65,0,0,1,3.85-.82,35.08,35.08,0,0,1,5.83,1.07l3.42.86a9.78,9.78,0,0,0,1.88.38,8.83,8.83,0,0,0,1.95-.33,14.63,14.63,0,0,1,3.6-.49A3.17,3.17,0,0,1,199,240a.84.84,0,0,1,.2,1.2l.12-.09a58.64,58.64,0,0,1-8.1,2.09c-1,.19-1.82.32-2.37.41a4,4,0,0,0-.85.17,4.29,4.29,0,0,0,.86,0c.56,0,1.38-.13,2.4-.29a51.09,51.09,0,0,0,8.19-1.94l.08,0,0-.07a1.61,1.61,0,0,0,.22-.92,1.16,1.16,0,0,0-.54-.85,3.57,3.57,0,0,0-1.82-.39,14.83,14.83,0,0,0-3.71.49,8.29,8.29,0,0,1-1.83.32,11.89,11.89,0,0,1-1.78-.35l-3.43-.84a32.7,32.7,0,0,0-5.92-1,8.57,8.57,0,0,0-3.94,1,9.73,9.73,0,0,0-.94.57C175.66,239.53,175.56,239.63,175.57,239.64Z" style="fill:#6f4439"></path><path d="M162.25,253.09s.61-23.61-1.58-28.73-5.22-6.41-8.08-7.5-15-4.92-15-4.92-3.58,5.39-8.66,5.26c-8.25-.21-11.78-7.45-11.78-7.45s-13.85,1.69-19.06,4.14l-4,29.81s7,45,10,48.86,25.58,12.49,36.69,9,19.53-11.86,16.25-15.05c-4.48-4.35-5.68-22.25-3.79-28.13C153.43,257.66,162.25,253.09,162.25,253.09Z" style="fill:#455a64"></path><path d="M157,234.54a3.41,3.41,0,0,0-.1,1c0,.72-.07,1.61-.12,2.65-.12,2.24-.32,5.33-.81,8.71a72.66,72.66,0,0,1-1.79,8.56c-.59,2.16-1,3.48-.95,3.5a4.14,4.14,0,0,0,.4-.89c.23-.59.52-1.45.86-2.52a56.82,56.82,0,0,0,1.92-8.59,67.17,67.17,0,0,0,.68-8.76c0-1.12,0-2,0-2.66A4.86,4.86,0,0,0,157,234.54Z" style="fill:#263238"></path><path d="M154.09,286.62l-6.26-50.45-40.49,2.23,3.44,50.2-7.92,1.5-2.46,12,.81.28h0s-11.34,88.73-10.06,91.36,69.72.8,69.72.8,4.73-68.12,3.95-81.79a55.94,55.94,0,0,0-6.42-23.19Z" style="fill:#800080"></path><path d="M149.92,215.92s.17,24.62-3,25.8c-4.27,1.56-4-3.33-4-7.18s1.4-20.65,1.4-20.65A9,9,0,0,1,149.92,215.92Z" style="fill:#800080"></path><path d="M111.86,210.52s3.72,28.17,2.66,30.32-4.47,2.33-5.1,0-3.94-29.14-3.94-29.14S109.81,210,111.86,210.52Z" style="fill:#800080"></path><path d="M114.6,236.53a3.87,3.87,0,0,1,.38,2,13.37,13.37,0,0,1-.06,2.23,2.7,2.7,0,0,1-1.75,2.19,2.86,2.86,0,0,1-2.7-.8,4.37,4.37,0,0,1-1.11-2,5.21,5.21,0,0,1-.26-2,15.23,15.23,0,0,1,.61,1.91,4.4,4.4,0,0,0,1.08,1.75,2.48,2.48,0,0,0,2.23.65,2.29,2.29,0,0,0,1.43-1.79,19.52,19.52,0,0,0,.17-2.13C114.67,237.29,114.54,236.55,114.6,236.53Z" style="fill:#263238"></path><path d="M148.77,237.34a3.12,3.12,0,0,1-.66,1.54,3.78,3.78,0,0,1-1.37,1.27,3,3,0,0,1-2.3.26,2.81,2.81,0,0,1-1.66-1.63,4.27,4.27,0,0,1-.33-1.82,3.9,3.9,0,0,1,.25-1.65,8.19,8.19,0,0,1,.11,1.63,4.65,4.65,0,0,0,.41,1.64,2.41,2.41,0,0,0,1.38,1.33,2.61,2.61,0,0,0,1.93-.19,3.85,3.85,0,0,0,1.29-1.06C148.43,237.89,148.69,237.31,148.77,237.34Z" style="fill:#263238"></path><path d="M112.5,302.69a6.18,6.18,0,0,1-.44-1.91,28.63,28.63,0,0,1-.28-4.72,29.37,29.37,0,0,1,.45-4.71,6.19,6.19,0,0,1,.51-1.9c.16,0-.39,3-.44,6.62S112.65,302.67,112.5,302.69Z" style="fill:#263238"></path><path d="M120.68,310.32c-.14,0-1.38-5.09-2.77-11.44s-2.4-11.53-2.26-11.57,1.38,5.1,2.77,11.45S120.82,310.29,120.68,310.32Z" style="fill:#263238"></path><path d="M147.34,263.53a.81.81,0,0,1,.06.24c0,.16.08.4.12.72a5.46,5.46,0,0,1-.21,2.8,3.76,3.76,0,0,1-1.3,1.6,7.24,7.24,0,0,1-2.2,1.05,51.6,51.6,0,0,1-5.76,1.2,70.52,70.52,0,0,1-7.09.73c-1.28.06-2.61.09-4,.08a22,22,0,0,1-4.23-.34,7.64,7.64,0,0,1-4-2,8.25,8.25,0,0,1-2-4.23,46.52,46.52,0,0,1-.58-4.76c-.15-1.6-.3-3.24-.45-4.89l-.11-1.23a4.07,4.07,0,0,1,0-1.3,4,4,0,0,1,1.26-2.23,4,4,0,0,1,2.33-1l2.35-.28c3.1-.39,6.09-.77,9-1.08s5.59-.52,8.15-.62c1.29,0,2.52-.07,3.72,0a5.23,5.23,0,0,1,1.78.23,2,2,0,0,1,1.15,1.35,9.68,9.68,0,0,1,.31,1.59c.07.51.14,1,.21,1.49.15,1,.28,1.88.4,2.74.24,1.7.45,3.17.63,4.38s.28,2.1.37,2.78l.09.72a1.18,1.18,0,0,1,0,.25,1,1,0,0,1-.07-.24c0-.19-.08-.43-.13-.72-.12-.67-.27-1.59-.47-2.76l-.72-4.37c-.13-.85-.28-1.76-.43-2.73s-.27-2-.55-3a1.63,1.63,0,0,0-.94-1.1,5.09,5.09,0,0,0-1.65-.19c-1.18,0-2.41,0-3.69.06-2.54.12-5.26.35-8.11.67s-5.85.71-9,1.1l-2.35.29a3.51,3.51,0,0,0-2,.84,3.39,3.39,0,0,0-1.1,1.94,10.27,10.27,0,0,0,.09,2.39q.22,2.47.45,4.89a46.82,46.82,0,0,0,.56,4.7,7.71,7.71,0,0,0,1.86,4,7.13,7.13,0,0,0,3.76,1.88,21.54,21.54,0,0,0,4.13.35c1.36,0,2.67,0,4-.06a65.14,65.14,0,0,0,7.05-.66,50.84,50.84,0,0,0,5.73-1.11,4.93,4.93,0,0,0,3.4-2.45,5.66,5.66,0,0,0,.3-2.71A8.61,8.61,0,0,1,147.34,263.53Z" style="fill:#263238"></path><path d="M97.07,228.7S96,213.59,93,217s-22.73,28.87-26.39,36.36,2.11,13.05,2.11,13.05L98.26,291.6l6.46-7-24-26.09,19.69-20.44Z" style="fill:#ae7461"></path><path d="M71.38,258.69a47.05,47.05,0,0,1,5-.46,47.62,47.62,0,0,1,5,.51,4.29,4.29,0,0,0-1.42-.5,16.12,16.12,0,0,0-3.61-.43,15.89,15.89,0,0,0-3.61.39A4.41,4.41,0,0,0,71.38,258.69Z" style="fill:#6f4439"></path><path d="M103.84,284.94c2.61-.62,9.73-8.26,12.17-9.78s7.06,0,7.06,0c-.14,2.92-2,1.52-3.67,1.77a11.25,11.25,0,0,0-3.8,1.91l3.12.38,6.11,2.8a3.59,3.59,0,0,1-1.76,2.79c-1.77,1.14-6.52-.59-6.52-.59l-2.71.85,2.85.5s3.8.64,4.75,1.53a1.23,1.23,0,0,1,.13,1.78l-5.7-1.4-3.39.63s-5.49,5-8.28,5.72-6.24-2.5-6.24-2.5Z" style="fill:#ae7461"></path><path d="M112.08,282a4.77,4.77,0,0,0,1.82-.33,9.27,9.27,0,0,1,1.9-.41,8.38,8.38,0,0,1,2.34.31A38.59,38.59,0,0,1,122.3,283a8.8,8.8,0,0,0,1.73.61,7.56,7.56,0,0,0-1.62-.87,25,25,0,0,0-4.17-1.55,8.25,8.25,0,0,0-2.47-.29,8.05,8.05,0,0,0-2,.51C112.75,281.84,112.08,282,112.08,282Z" style="fill:#6f4439"></path><path d="M98.08,213.89s-1.8.07-5.57,2.76-17.07,19.76-17.07,19.76l15.93,14.84L101,239.88s5-21.73,4.48-21.67S98.08,213.89,98.08,213.89Z" style="fill:#455a64"></path><path d="M101,239.79a8.93,8.93,0,0,1-1.1,1.85c-.75,1.09-1.84,2.57-3.13,4.13s-2.53,2.91-3.46,3.85a8.33,8.33,0,0,1-1.6,1.44c-.11-.11,2.11-2.51,4.66-5.62S100.83,239.7,101,239.79Z" style="fill:#263238"></path></g></svg>
